%TF.GenerationSoftware,KiCad,Pcbnew,8.0.6*%
%TF.CreationDate,2024-11-07T13:30:53-03:00*%
%TF.ProjectId,dice-keychain,64696365-2d6b-4657-9963-6861696e2e6b,rev?*%
%TF.SameCoordinates,Original*%
%TF.FileFunction,Legend,Top*%
%TF.FilePolarity,Positive*%
%FSLAX46Y46*%
G04 Gerber Fmt 4.6, Leading zero omitted, Abs format (unit mm)*
G04 Created by KiCad (PCBNEW 8.0.6) date 2024-11-07 13:30:53*
%MOMM*%
%LPD*%
G01*
G04 APERTURE LIST*
%ADD10C,0.187500*%
%ADD11C,0.150000*%
%ADD12C,0.000000*%
%ADD13C,0.120000*%
G04 APERTURE END LIST*
D10*
G36*
X117805744Y-88660217D02*
G01*
X117859096Y-88664835D01*
X117909151Y-88672811D01*
X117961521Y-88685799D01*
X118009370Y-88701991D01*
X118056826Y-88722837D01*
X118102084Y-88749240D01*
X118109532Y-88754431D01*
X118149992Y-88786888D01*
X118185917Y-88824609D01*
X118201856Y-88846022D01*
X118226383Y-88889931D01*
X118244300Y-88936546D01*
X118252658Y-88966434D01*
X118262531Y-89017276D01*
X118267950Y-89067803D01*
X118269932Y-89116786D01*
X118270000Y-89128122D01*
X118270000Y-89491556D01*
X117253949Y-89491556D01*
X117253949Y-89146685D01*
X117371186Y-89146685D01*
X117371186Y-89358199D01*
X118152763Y-89358199D01*
X118152763Y-89143265D01*
X118151275Y-89090612D01*
X118146133Y-89040084D01*
X118135113Y-88990533D01*
X118133956Y-88986950D01*
X118114555Y-88941763D01*
X118085170Y-88900883D01*
X118080956Y-88896580D01*
X118040198Y-88863997D01*
X117994629Y-88839318D01*
X117951507Y-88822819D01*
X117903033Y-88809949D01*
X117849111Y-88801292D01*
X117796606Y-88797132D01*
X117754403Y-88796196D01*
X117696763Y-88798025D01*
X117644379Y-88803512D01*
X117589906Y-88814537D01*
X117542585Y-88830540D01*
X117507718Y-88848220D01*
X117463722Y-88879123D01*
X117428729Y-88913582D01*
X117400407Y-88956038D01*
X117392191Y-88974249D01*
X117379391Y-89023571D01*
X117373668Y-89072644D01*
X117371370Y-89124958D01*
X117371186Y-89146685D01*
X117253949Y-89146685D01*
X117253949Y-89144487D01*
X117254865Y-89089227D01*
X117258085Y-89035380D01*
X117264382Y-88985882D01*
X117268604Y-88965212D01*
X117284317Y-88913654D01*
X117306423Y-88867057D01*
X117334921Y-88825421D01*
X117341388Y-88817690D01*
X117377704Y-88780290D01*
X117418752Y-88747958D01*
X117464532Y-88720695D01*
X117515045Y-88698499D01*
X117562656Y-88683082D01*
X117613166Y-88671451D01*
X117666574Y-88663607D01*
X117722880Y-88659550D01*
X117756357Y-88658932D01*
X117805744Y-88660217D01*
G37*
G36*
X118270000Y-87996301D02*
G01*
X118221313Y-88013603D01*
X118177676Y-88020969D01*
X118208180Y-88059189D01*
X118235638Y-88100748D01*
X118258018Y-88145362D01*
X118261207Y-88153349D01*
X118276090Y-88202282D01*
X118284105Y-88253825D01*
X118285631Y-88289637D01*
X118282791Y-88339557D01*
X118272590Y-88390111D01*
X118252246Y-88438701D01*
X118226280Y-88474528D01*
X118185966Y-88508532D01*
X118139211Y-88529941D01*
X118086017Y-88538757D01*
X118074605Y-88539009D01*
X118025865Y-88533642D01*
X117978490Y-88516087D01*
X117975687Y-88514584D01*
X117935265Y-88486435D01*
X117903879Y-88450837D01*
X117878796Y-88405970D01*
X117862847Y-88361688D01*
X117852673Y-88312544D01*
X117845172Y-88260824D01*
X117844040Y-88251779D01*
X117837022Y-88198407D01*
X117828226Y-88143151D01*
X117817373Y-88089246D01*
X117804141Y-88040390D01*
X117801053Y-88031228D01*
X117898750Y-88031228D01*
X117914908Y-88079919D01*
X117926700Y-88128317D01*
X117936192Y-88177553D01*
X117944912Y-88233217D01*
X117953716Y-88284118D01*
X117966631Y-88332539D01*
X117970069Y-88341172D01*
X117999723Y-88381756D01*
X118010858Y-88390020D01*
X118058547Y-88406516D01*
X118070697Y-88407117D01*
X118119400Y-88396571D01*
X118154473Y-88369748D01*
X118178490Y-88326919D01*
X118187411Y-88277558D01*
X118187934Y-88260083D01*
X118183503Y-88208678D01*
X118168703Y-88158105D01*
X118156427Y-88133077D01*
X118126799Y-88092708D01*
X118086327Y-88060144D01*
X118069720Y-88051256D01*
X118021199Y-88036880D01*
X117969553Y-88031717D01*
X117944668Y-88031228D01*
X117898750Y-88031228D01*
X117801053Y-88031228D01*
X117768813Y-88030739D01*
X117718793Y-88035651D01*
X117673752Y-88055604D01*
X117663056Y-88065666D01*
X117637605Y-88107695D01*
X117624594Y-88157626D01*
X117621290Y-88206594D01*
X117624153Y-88256630D01*
X117635144Y-88304899D01*
X117650600Y-88335310D01*
X117687952Y-88369514D01*
X117736298Y-88391516D01*
X117754159Y-88396859D01*
X117737550Y-88517759D01*
X117689266Y-88503859D01*
X117644427Y-88483034D01*
X117616161Y-88463538D01*
X117582004Y-88427256D01*
X117556770Y-88383962D01*
X117544842Y-88354361D01*
X117530520Y-88302477D01*
X117522658Y-88250652D01*
X117519784Y-88200216D01*
X117519685Y-88188520D01*
X117521444Y-88138801D01*
X117527521Y-88090038D01*
X117540544Y-88040528D01*
X117541912Y-88036845D01*
X117563343Y-87991705D01*
X117595275Y-87952856D01*
X117597355Y-87951116D01*
X117640640Y-87925322D01*
X117682107Y-87912526D01*
X117733979Y-87907588D01*
X117786506Y-87906443D01*
X117796657Y-87906420D01*
X117962498Y-87906420D01*
X118013576Y-87906229D01*
X118066653Y-87905496D01*
X118117247Y-87903947D01*
X118168356Y-87900436D01*
X118181828Y-87898604D01*
X118229581Y-87885697D01*
X118270000Y-87867096D01*
X118270000Y-87996301D01*
G37*
G36*
X118270000Y-87245010D02*
G01*
X118177920Y-87245010D01*
X118219889Y-87278573D01*
X118251551Y-87318353D01*
X118272903Y-87364352D01*
X118283948Y-87416568D01*
X118285631Y-87449197D01*
X118280908Y-87502334D01*
X118266740Y-87552752D01*
X118243127Y-87600451D01*
X118237271Y-87609665D01*
X118207054Y-87648154D01*
X118170810Y-87681466D01*
X118128538Y-87709600D01*
X118102449Y-87722993D01*
X118051648Y-87742356D01*
X118003086Y-87754248D01*
X117951318Y-87761132D01*
X117903391Y-87763049D01*
X117849825Y-87760775D01*
X117798794Y-87753951D01*
X117750297Y-87742578D01*
X117704333Y-87726657D01*
X117657353Y-87703308D01*
X117616981Y-87674201D01*
X117579872Y-87635108D01*
X117567313Y-87617480D01*
X117542197Y-87570297D01*
X117526383Y-87519726D01*
X117519872Y-87465768D01*
X117519685Y-87454570D01*
X117520783Y-87442847D01*
X117621290Y-87442847D01*
X117627921Y-87491795D01*
X117650532Y-87539523D01*
X117685013Y-87577352D01*
X117689190Y-87580844D01*
X117733448Y-87607527D01*
X117783201Y-87623914D01*
X117834774Y-87632593D01*
X117884952Y-87635827D01*
X117902903Y-87636043D01*
X117953418Y-87633965D01*
X118005993Y-87626288D01*
X118057692Y-87610588D01*
X118105161Y-87584093D01*
X118114173Y-87576936D01*
X118151009Y-87537919D01*
X118174203Y-87494752D01*
X118183958Y-87442475D01*
X118184026Y-87437473D01*
X118176147Y-87384611D01*
X118152510Y-87337521D01*
X118117348Y-87299720D01*
X118074159Y-87272329D01*
X118026459Y-87255507D01*
X117977534Y-87246598D01*
X117921900Y-87243111D01*
X117913405Y-87243056D01*
X117859627Y-87245091D01*
X117804026Y-87252609D01*
X117756116Y-87265668D01*
X117710779Y-87287375D01*
X117691877Y-87300942D01*
X117654653Y-87339567D01*
X117631217Y-87383393D01*
X117621566Y-87432418D01*
X117621290Y-87442847D01*
X117520783Y-87442847D01*
X117524482Y-87403368D01*
X117540377Y-87353546D01*
X117548750Y-87337090D01*
X117577381Y-87295689D01*
X117612837Y-87261676D01*
X117624221Y-87253314D01*
X117253949Y-87253314D01*
X117253949Y-87130460D01*
X118270000Y-87130460D01*
X118270000Y-87245010D01*
G37*
G36*
X117943310Y-86303718D02*
G01*
X117997345Y-86309206D01*
X118045605Y-86318738D01*
X118093691Y-86334583D01*
X118114905Y-86344487D01*
X118157658Y-86371307D01*
X118194693Y-86404233D01*
X118226008Y-86443263D01*
X118240935Y-86467585D01*
X118262541Y-86514101D01*
X118277076Y-86562974D01*
X118284540Y-86614204D01*
X118285631Y-86643684D01*
X118282162Y-86699051D01*
X118271755Y-86750296D01*
X118254410Y-86797420D01*
X118230127Y-86840422D01*
X118198906Y-86879302D01*
X118186957Y-86891346D01*
X118146897Y-86923469D01*
X118100724Y-86948946D01*
X118048437Y-86967776D01*
X118000194Y-86978391D01*
X117947706Y-86984391D01*
X117902658Y-86985868D01*
X117853440Y-86984105D01*
X117796542Y-86976942D01*
X117744785Y-86964270D01*
X117698168Y-86946088D01*
X117649012Y-86916996D01*
X117607258Y-86879970D01*
X117601018Y-86873028D01*
X117569327Y-86829913D01*
X117545420Y-86782848D01*
X117529296Y-86731833D01*
X117520956Y-86676867D01*
X117519685Y-86643684D01*
X117621290Y-86643684D01*
X117626816Y-86693379D01*
X117645917Y-86742705D01*
X117678660Y-86785829D01*
X117691144Y-86797557D01*
X117736097Y-86827074D01*
X117785560Y-86845201D01*
X117836178Y-86854801D01*
X117885016Y-86858379D01*
X117902414Y-86858618D01*
X117952864Y-86856471D01*
X118005427Y-86848540D01*
X118057199Y-86832321D01*
X118100117Y-86808469D01*
X118113928Y-86797557D01*
X118147813Y-86760699D01*
X118172457Y-86713854D01*
X118183410Y-86660807D01*
X118184026Y-86643684D01*
X118178443Y-86594343D01*
X118159142Y-86545275D01*
X118126054Y-86502265D01*
X118113440Y-86490544D01*
X118067881Y-86461027D01*
X118017556Y-86442900D01*
X117965932Y-86433299D01*
X117916047Y-86429722D01*
X117898262Y-86429483D01*
X117849398Y-86431647D01*
X117798294Y-86439641D01*
X117747675Y-86455990D01*
X117700654Y-86483579D01*
X117691632Y-86491032D01*
X117657629Y-86527893D01*
X117632900Y-86574423D01*
X117621909Y-86626821D01*
X117621290Y-86643684D01*
X117519685Y-86643684D01*
X117523172Y-86589196D01*
X117533630Y-86538572D01*
X117551061Y-86491812D01*
X117575464Y-86448916D01*
X117606840Y-86409884D01*
X117618848Y-86397732D01*
X117658604Y-86365277D01*
X117703684Y-86339537D01*
X117754088Y-86320512D01*
X117809815Y-86308201D01*
X117860322Y-86303072D01*
X117892400Y-86302233D01*
X117943310Y-86303718D01*
G37*
G36*
X117992916Y-85150454D02*
G01*
X118043230Y-85160191D01*
X118091457Y-85176420D01*
X118117348Y-85188241D01*
X118160221Y-85213619D01*
X118200788Y-85247527D01*
X118233914Y-85287445D01*
X118242400Y-85300593D01*
X118265198Y-85347051D01*
X118279552Y-85397278D01*
X118285462Y-85451274D01*
X118285631Y-85462526D01*
X118281621Y-85518494D01*
X118269591Y-85570443D01*
X118249541Y-85618374D01*
X118221471Y-85662286D01*
X118185382Y-85702179D01*
X118171570Y-85714584D01*
X118123602Y-85747703D01*
X118075692Y-85770068D01*
X118020566Y-85787674D01*
X117971271Y-85798333D01*
X117917359Y-85805946D01*
X117858828Y-85810514D01*
X117795680Y-85812037D01*
X117742175Y-85811091D01*
X117691478Y-85808250D01*
X117628250Y-85801519D01*
X117570013Y-85791421D01*
X117516768Y-85777957D01*
X117468515Y-85761127D01*
X117415218Y-85735356D01*
X117369720Y-85704326D01*
X117330376Y-85666762D01*
X117299172Y-85624596D01*
X117276109Y-85577827D01*
X117261185Y-85526456D01*
X117254401Y-85470483D01*
X117253949Y-85450802D01*
X117257210Y-85400832D01*
X117268922Y-85348789D01*
X117289152Y-85302150D01*
X117317901Y-85260915D01*
X117322093Y-85256140D01*
X117359294Y-85221962D01*
X117402998Y-85195385D01*
X117453206Y-85176410D01*
X117502471Y-85166044D01*
X117509916Y-85165038D01*
X117519685Y-85287892D01*
X117469036Y-85302272D01*
X117424530Y-85323910D01*
X117410265Y-85334787D01*
X117376926Y-85375636D01*
X117358974Y-85423080D01*
X117355554Y-85458374D01*
X117361772Y-85507334D01*
X117382233Y-85553670D01*
X117388039Y-85562177D01*
X117421480Y-85599394D01*
X117464042Y-85630781D01*
X117510648Y-85654256D01*
X117561278Y-85670547D01*
X117615396Y-85680779D01*
X117669788Y-85686451D01*
X117721637Y-85688875D01*
X117739993Y-85689183D01*
X117699755Y-85656117D01*
X117667368Y-85618375D01*
X117644738Y-85580006D01*
X117625687Y-85530639D01*
X117615429Y-85479623D01*
X117614855Y-85469364D01*
X117715080Y-85469364D01*
X117721067Y-85519243D01*
X117741482Y-85568380D01*
X117772613Y-85607841D01*
X117776385Y-85611514D01*
X117818445Y-85642297D01*
X117867995Y-85661679D01*
X117918993Y-85669375D01*
X117937341Y-85669888D01*
X117989399Y-85665413D01*
X118039603Y-85651990D01*
X118062149Y-85642777D01*
X118105894Y-85617202D01*
X118142546Y-85581726D01*
X118153007Y-85567062D01*
X118175272Y-85520193D01*
X118183905Y-85471177D01*
X118184026Y-85464480D01*
X118176407Y-85413315D01*
X118153549Y-85367287D01*
X118119546Y-85329902D01*
X118074714Y-85300149D01*
X118026616Y-85282793D01*
X117977699Y-85274859D01*
X117944180Y-85273482D01*
X117893759Y-85276962D01*
X117843786Y-85289198D01*
X117796646Y-85313126D01*
X117776385Y-85329169D01*
X117744056Y-85366788D01*
X117722324Y-85414671D01*
X117715140Y-85464111D01*
X117715080Y-85469364D01*
X117614855Y-85469364D01*
X117613475Y-85444696D01*
X117617846Y-85392296D01*
X117630959Y-85343450D01*
X117652815Y-85298156D01*
X117683412Y-85256415D01*
X117704822Y-85234159D01*
X117747238Y-85200278D01*
X117794774Y-85174720D01*
X117847430Y-85157483D01*
X117896637Y-85149331D01*
X117940516Y-85147208D01*
X117992916Y-85150454D01*
G37*
G36*
X118270000Y-84607676D02*
G01*
X117253949Y-84607676D01*
X117253949Y-84483845D01*
X118270000Y-84483845D01*
X118270000Y-84607676D01*
G37*
G36*
X118270000Y-83793370D02*
G01*
X118221313Y-83810672D01*
X118177676Y-83818039D01*
X118208180Y-83856258D01*
X118235638Y-83897817D01*
X118258018Y-83942431D01*
X118261207Y-83950418D01*
X118276090Y-83999351D01*
X118284105Y-84050894D01*
X118285631Y-84086706D01*
X118282791Y-84136626D01*
X118272590Y-84187180D01*
X118252246Y-84235770D01*
X118226280Y-84271598D01*
X118185966Y-84305601D01*
X118139211Y-84327010D01*
X118086017Y-84335826D01*
X118074605Y-84336078D01*
X118025865Y-84330711D01*
X117978490Y-84313156D01*
X117975687Y-84311653D01*
X117935265Y-84283504D01*
X117903879Y-84247906D01*
X117878796Y-84203039D01*
X117862847Y-84158757D01*
X117852673Y-84109613D01*
X117845172Y-84057893D01*
X117844040Y-84048848D01*
X117837022Y-83995476D01*
X117828226Y-83940220D01*
X117817373Y-83886315D01*
X117804141Y-83837459D01*
X117801053Y-83828297D01*
X117898750Y-83828297D01*
X117914908Y-83876988D01*
X117926700Y-83925386D01*
X117936192Y-83974622D01*
X117944912Y-84030286D01*
X117953716Y-84081187D01*
X117966631Y-84129608D01*
X117970069Y-84138241D01*
X117999723Y-84178825D01*
X118010858Y-84187090D01*
X118058547Y-84203585D01*
X118070697Y-84204187D01*
X118119400Y-84193640D01*
X118154473Y-84166817D01*
X118178490Y-84123988D01*
X118187411Y-84074627D01*
X118187934Y-84057152D01*
X118183503Y-84005747D01*
X118168703Y-83955174D01*
X118156427Y-83930146D01*
X118126799Y-83889778D01*
X118086327Y-83857213D01*
X118069720Y-83848325D01*
X118021199Y-83833949D01*
X117969553Y-83828786D01*
X117944668Y-83828297D01*
X117898750Y-83828297D01*
X117801053Y-83828297D01*
X117768813Y-83827808D01*
X117718793Y-83832720D01*
X117673752Y-83852673D01*
X117663056Y-83862735D01*
X117637605Y-83904764D01*
X117624594Y-83954696D01*
X117621290Y-84003663D01*
X117624153Y-84053700D01*
X117635144Y-84101968D01*
X117650600Y-84132379D01*
X117687952Y-84166583D01*
X117736298Y-84188586D01*
X117754159Y-84193928D01*
X117737550Y-84314829D01*
X117689266Y-84300928D01*
X117644427Y-84280103D01*
X117616161Y-84260607D01*
X117582004Y-84224325D01*
X117556770Y-84181031D01*
X117544842Y-84151430D01*
X117530520Y-84099546D01*
X117522658Y-84047721D01*
X117519784Y-83997285D01*
X117519685Y-83985589D01*
X117521444Y-83935870D01*
X117527521Y-83887108D01*
X117540544Y-83837597D01*
X117541912Y-83833914D01*
X117563343Y-83788774D01*
X117595275Y-83749925D01*
X117597355Y-83748185D01*
X117640640Y-83722391D01*
X117682107Y-83709595D01*
X117733979Y-83704657D01*
X117786506Y-83703513D01*
X117796657Y-83703489D01*
X117962498Y-83703489D01*
X118013576Y-83703298D01*
X118066653Y-83702565D01*
X118117247Y-83701016D01*
X118168356Y-83697505D01*
X118181828Y-83695673D01*
X118229581Y-83682766D01*
X118270000Y-83664166D01*
X118270000Y-83793370D01*
G37*
G36*
X118270000Y-83042079D02*
G01*
X118177920Y-83042079D01*
X118219889Y-83075642D01*
X118251551Y-83115423D01*
X118272903Y-83161421D01*
X118283948Y-83213637D01*
X118285631Y-83246266D01*
X118280908Y-83299403D01*
X118266740Y-83349821D01*
X118243127Y-83397520D01*
X118237271Y-83406734D01*
X118207054Y-83445223D01*
X118170810Y-83478535D01*
X118128538Y-83506669D01*
X118102449Y-83520062D01*
X118051648Y-83539425D01*
X118003086Y-83551317D01*
X117951318Y-83558201D01*
X117903391Y-83560118D01*
X117849825Y-83557844D01*
X117798794Y-83551020D01*
X117750297Y-83539648D01*
X117704333Y-83523726D01*
X117657353Y-83500377D01*
X117616981Y-83471270D01*
X117579872Y-83432177D01*
X117567313Y-83414549D01*
X117542197Y-83367366D01*
X117526383Y-83316795D01*
X117519872Y-83262837D01*
X117519685Y-83251639D01*
X117520783Y-83239916D01*
X117621290Y-83239916D01*
X117627921Y-83288865D01*
X117650532Y-83336592D01*
X117685013Y-83374421D01*
X117689190Y-83377913D01*
X117733448Y-83404596D01*
X117783201Y-83420983D01*
X117834774Y-83429662D01*
X117884952Y-83432896D01*
X117902903Y-83433112D01*
X117953418Y-83431034D01*
X118005993Y-83423357D01*
X118057692Y-83407657D01*
X118105161Y-83381163D01*
X118114173Y-83374005D01*
X118151009Y-83334988D01*
X118174203Y-83291821D01*
X118183958Y-83239544D01*
X118184026Y-83234542D01*
X118176147Y-83181680D01*
X118152510Y-83134590D01*
X118117348Y-83096789D01*
X118074159Y-83069398D01*
X118026459Y-83052576D01*
X117977534Y-83043667D01*
X117921900Y-83040180D01*
X117913405Y-83040125D01*
X117859627Y-83042160D01*
X117804026Y-83049678D01*
X117756116Y-83062737D01*
X117710779Y-83084444D01*
X117691877Y-83098011D01*
X117654653Y-83136636D01*
X117631217Y-83180462D01*
X117621566Y-83229487D01*
X117621290Y-83239916D01*
X117520783Y-83239916D01*
X117524482Y-83200437D01*
X117540377Y-83150615D01*
X117548750Y-83134159D01*
X117577381Y-83092758D01*
X117612837Y-83058745D01*
X117624221Y-83050383D01*
X117253949Y-83050383D01*
X117253949Y-82927529D01*
X118270000Y-82927529D01*
X118270000Y-83042079D01*
G37*
G36*
X117943310Y-82100787D02*
G01*
X117997345Y-82106275D01*
X118045605Y-82115807D01*
X118093691Y-82131652D01*
X118114905Y-82141556D01*
X118157658Y-82168376D01*
X118194693Y-82201302D01*
X118226008Y-82240332D01*
X118240935Y-82264654D01*
X118262541Y-82311170D01*
X118277076Y-82360043D01*
X118284540Y-82411273D01*
X118285631Y-82440753D01*
X118282162Y-82496120D01*
X118271755Y-82547365D01*
X118254410Y-82594489D01*
X118230127Y-82637491D01*
X118198906Y-82676371D01*
X118186957Y-82688415D01*
X118146897Y-82720538D01*
X118100724Y-82746015D01*
X118048437Y-82764845D01*
X118000194Y-82775461D01*
X117947706Y-82781460D01*
X117902658Y-82782937D01*
X117853440Y-82781174D01*
X117796542Y-82774012D01*
X117744785Y-82761339D01*
X117698168Y-82743157D01*
X117649012Y-82714065D01*
X117607258Y-82677040D01*
X117601018Y-82670097D01*
X117569327Y-82626982D01*
X117545420Y-82579917D01*
X117529296Y-82528902D01*
X117520956Y-82473936D01*
X117519685Y-82440753D01*
X117621290Y-82440753D01*
X117626816Y-82490448D01*
X117645917Y-82539774D01*
X117678660Y-82582898D01*
X117691144Y-82594626D01*
X117736097Y-82624143D01*
X117785560Y-82642270D01*
X117836178Y-82651871D01*
X117885016Y-82655448D01*
X117902414Y-82655687D01*
X117952864Y-82653540D01*
X118005427Y-82645609D01*
X118057199Y-82629390D01*
X118100117Y-82605538D01*
X118113928Y-82594626D01*
X118147813Y-82557768D01*
X118172457Y-82510923D01*
X118183410Y-82457876D01*
X118184026Y-82440753D01*
X118178443Y-82391412D01*
X118159142Y-82342344D01*
X118126054Y-82299334D01*
X118113440Y-82287613D01*
X118067881Y-82258096D01*
X118017556Y-82239969D01*
X117965932Y-82230368D01*
X117916047Y-82226791D01*
X117898262Y-82226552D01*
X117849398Y-82228716D01*
X117798294Y-82236710D01*
X117747675Y-82253059D01*
X117700654Y-82280648D01*
X117691632Y-82288101D01*
X117657629Y-82324962D01*
X117632900Y-82371492D01*
X117621909Y-82423890D01*
X117621290Y-82440753D01*
X117519685Y-82440753D01*
X117523172Y-82386265D01*
X117533630Y-82335641D01*
X117551061Y-82288881D01*
X117575464Y-82245985D01*
X117606840Y-82206953D01*
X117618848Y-82194801D01*
X117658604Y-82162346D01*
X117703684Y-82136606D01*
X117754088Y-82117581D01*
X117809815Y-82105270D01*
X117860322Y-82100141D01*
X117892400Y-82099302D01*
X117943310Y-82100787D01*
G37*
G36*
X118054577Y-82007711D02*
G01*
X118035526Y-81885345D01*
X118084676Y-81872499D01*
X118127302Y-81846955D01*
X118145680Y-81828192D01*
X118170508Y-81783724D01*
X118182191Y-81731729D01*
X118184026Y-81696545D01*
X118180615Y-81647563D01*
X118167518Y-81600119D01*
X118149099Y-81570027D01*
X118110875Y-81539070D01*
X118066545Y-81528750D01*
X118018765Y-81544528D01*
X117999867Y-81565387D01*
X117979670Y-81613676D01*
X117965406Y-81661980D01*
X117957613Y-81691660D01*
X117945025Y-81739740D01*
X117931164Y-81788410D01*
X117914647Y-81839238D01*
X117898018Y-81880216D01*
X117870247Y-81923865D01*
X117831397Y-81958120D01*
X117828653Y-81959839D01*
X117781880Y-81980172D01*
X117730467Y-81986950D01*
X117680564Y-81980677D01*
X117639853Y-81964724D01*
X117599544Y-81936490D01*
X117570732Y-81903907D01*
X117546537Y-81859677D01*
X117534584Y-81825261D01*
X117523890Y-81776993D01*
X117519744Y-81725613D01*
X117519685Y-81718527D01*
X117522071Y-81666869D01*
X117530204Y-81614838D01*
X117544110Y-81567829D01*
X117566816Y-81520645D01*
X117597671Y-81482364D01*
X117610300Y-81471842D01*
X117655680Y-81447055D01*
X117705081Y-81432519D01*
X117722163Y-81429344D01*
X117738527Y-81550244D01*
X117689373Y-81566181D01*
X117652309Y-81597871D01*
X117630045Y-81642103D01*
X117621775Y-81691985D01*
X117621290Y-81709490D01*
X117624638Y-81762321D01*
X117637227Y-81809874D01*
X117649623Y-81831123D01*
X117688854Y-81862398D01*
X117716057Y-81867515D01*
X117759532Y-81852372D01*
X117789345Y-81812782D01*
X117792749Y-81804989D01*
X117807242Y-81757545D01*
X117821457Y-81706858D01*
X117824501Y-81695812D01*
X117839280Y-81642229D01*
X117854683Y-81590293D01*
X117870113Y-81543726D01*
X117882142Y-81512875D01*
X117907662Y-81469040D01*
X117944703Y-81433167D01*
X117947355Y-81431297D01*
X117991987Y-81410085D01*
X118041876Y-81402004D01*
X118053600Y-81401744D01*
X118102995Y-81407710D01*
X118149971Y-81425607D01*
X118170837Y-81437892D01*
X118208401Y-81469354D01*
X118239026Y-81509883D01*
X118255589Y-81541939D01*
X118272693Y-81590756D01*
X118282081Y-81638841D01*
X118285602Y-81690457D01*
X118285631Y-81695812D01*
X118283587Y-81746740D01*
X118276037Y-81800143D01*
X118260597Y-81853247D01*
X118237890Y-81897894D01*
X118227501Y-81912456D01*
X118190222Y-81950108D01*
X118144056Y-81979260D01*
X118095559Y-81998036D01*
X118054577Y-82007711D01*
G37*
G36*
X119684263Y-89031158D02*
G01*
X119700139Y-88909525D01*
X119752053Y-88921256D01*
X119798801Y-88938924D01*
X119845901Y-88966386D01*
X119886255Y-89001603D01*
X119895289Y-89011618D01*
X119926064Y-89055002D01*
X119948046Y-89103087D01*
X119961235Y-89155874D01*
X119965562Y-89205920D01*
X119965631Y-89213363D01*
X119962179Y-89267448D01*
X119951824Y-89317411D01*
X119934564Y-89363252D01*
X119905703Y-89411524D01*
X119873486Y-89448435D01*
X119867445Y-89454187D01*
X119827537Y-89485064D01*
X119781636Y-89509553D01*
X119729741Y-89527654D01*
X119681917Y-89537858D01*
X119629931Y-89543625D01*
X119585345Y-89545045D01*
X119534839Y-89543175D01*
X119480609Y-89536458D01*
X119430104Y-89524857D01*
X119383324Y-89508370D01*
X119377739Y-89505966D01*
X119331128Y-89480640D01*
X119291589Y-89448899D01*
X119259120Y-89410744D01*
X119244138Y-89386775D01*
X119222650Y-89340611D01*
X119208194Y-89292245D01*
X119200771Y-89241676D01*
X119199685Y-89212630D01*
X119202572Y-89162672D01*
X119212941Y-89110671D01*
X119230851Y-89064104D01*
X119260013Y-89018213D01*
X119297947Y-88979932D01*
X119343879Y-88950267D01*
X119391423Y-88931132D01*
X119431228Y-88921249D01*
X119449790Y-89041416D01*
X119403269Y-89056455D01*
X119359527Y-89082266D01*
X119338660Y-89102477D01*
X119311837Y-89147260D01*
X119301619Y-89196320D01*
X119301290Y-89207745D01*
X119306623Y-89257582D01*
X119325056Y-89306431D01*
X119356654Y-89348410D01*
X119368702Y-89359665D01*
X119412822Y-89387882D01*
X119462453Y-89405212D01*
X119513919Y-89414390D01*
X119564005Y-89417811D01*
X119581926Y-89418039D01*
X119634588Y-89416055D01*
X119688842Y-89408727D01*
X119741373Y-89393740D01*
X119788392Y-89368451D01*
X119797103Y-89361618D01*
X119832395Y-89323017D01*
X119854615Y-89277736D01*
X119863765Y-89225777D01*
X119864026Y-89214584D01*
X119857844Y-89163396D01*
X119837193Y-89115617D01*
X119820062Y-89093196D01*
X119780243Y-89061574D01*
X119732035Y-89041398D01*
X119684263Y-89031158D01*
G37*
G36*
X119623310Y-88171687D02*
G01*
X119677345Y-88177175D01*
X119725605Y-88186707D01*
X119773691Y-88202553D01*
X119794905Y-88212456D01*
X119837658Y-88239276D01*
X119874693Y-88272202D01*
X119906008Y-88311233D01*
X119920935Y-88335554D01*
X119942541Y-88382070D01*
X119957076Y-88430944D01*
X119964540Y-88482174D01*
X119965631Y-88511653D01*
X119962162Y-88567020D01*
X119951755Y-88618265D01*
X119934410Y-88665389D01*
X119910127Y-88708391D01*
X119878906Y-88747271D01*
X119866957Y-88759316D01*
X119826897Y-88791438D01*
X119780724Y-88816915D01*
X119728437Y-88835746D01*
X119680194Y-88846361D01*
X119627706Y-88852361D01*
X119582658Y-88853838D01*
X119533440Y-88852074D01*
X119476542Y-88844912D01*
X119424785Y-88832239D01*
X119378168Y-88814057D01*
X119329012Y-88784965D01*
X119287258Y-88747940D01*
X119281018Y-88740997D01*
X119249327Y-88697883D01*
X119225420Y-88650817D01*
X119209296Y-88599802D01*
X119200956Y-88544836D01*
X119199685Y-88511653D01*
X119301290Y-88511653D01*
X119306816Y-88561349D01*
X119325917Y-88610674D01*
X119358660Y-88653798D01*
X119371144Y-88665526D01*
X119416097Y-88695043D01*
X119465560Y-88713170D01*
X119516178Y-88722771D01*
X119565016Y-88726349D01*
X119582414Y-88726587D01*
X119632864Y-88724440D01*
X119685427Y-88716510D01*
X119737199Y-88700290D01*
X119780117Y-88676439D01*
X119793928Y-88665526D01*
X119827813Y-88628668D01*
X119852457Y-88581823D01*
X119863410Y-88528777D01*
X119864026Y-88511653D01*
X119858443Y-88462312D01*
X119839142Y-88413244D01*
X119806054Y-88370235D01*
X119793440Y-88358513D01*
X119747881Y-88328996D01*
X119697556Y-88310869D01*
X119645932Y-88301269D01*
X119596047Y-88297691D01*
X119578262Y-88297452D01*
X119529398Y-88299616D01*
X119478294Y-88307610D01*
X119427675Y-88323959D01*
X119380654Y-88351548D01*
X119371632Y-88359002D01*
X119337629Y-88395862D01*
X119312900Y-88442392D01*
X119301909Y-88494790D01*
X119301290Y-88511653D01*
X119199685Y-88511653D01*
X119203172Y-88457165D01*
X119213630Y-88406541D01*
X119231061Y-88359781D01*
X119255464Y-88316885D01*
X119286840Y-88277853D01*
X119298848Y-88265701D01*
X119338604Y-88233246D01*
X119383684Y-88207506D01*
X119434088Y-88188481D01*
X119489815Y-88176171D01*
X119540322Y-88171041D01*
X119572400Y-88170202D01*
X119623310Y-88171687D01*
G37*
G36*
X119950000Y-88029030D02*
G01*
X119215317Y-88029030D01*
X119215317Y-87918387D01*
X119316922Y-87918387D01*
X119277443Y-87886856D01*
X119244737Y-87847827D01*
X119231926Y-87827285D01*
X119212279Y-87782222D01*
X119201700Y-87732763D01*
X119199685Y-87697348D01*
X119203611Y-87645063D01*
X119216845Y-87595924D01*
X119232903Y-87564480D01*
X119267063Y-87524849D01*
X119311415Y-87497000D01*
X119325959Y-87491207D01*
X119283046Y-87456946D01*
X119249011Y-87419010D01*
X119220526Y-87370107D01*
X119204125Y-87316201D01*
X119199685Y-87266015D01*
X119203471Y-87214815D01*
X119216781Y-87164734D01*
X119242808Y-87118423D01*
X119260258Y-87098953D01*
X119304355Y-87068170D01*
X119354973Y-87050213D01*
X119408661Y-87042004D01*
X119446371Y-87040579D01*
X119950000Y-87040579D01*
X119950000Y-87163677D01*
X119486182Y-87163677D01*
X119435887Y-87165360D01*
X119387314Y-87172840D01*
X119378471Y-87175645D01*
X119337760Y-87203069D01*
X119325471Y-87219364D01*
X119307594Y-87265451D01*
X119305198Y-87293370D01*
X119311317Y-87343176D01*
X119331948Y-87390465D01*
X119356978Y-87421109D01*
X119399768Y-87450033D01*
X119451440Y-87465909D01*
X119501537Y-87471465D01*
X119522330Y-87471912D01*
X119950000Y-87471912D01*
X119950000Y-87595743D01*
X119471528Y-87595743D01*
X119419342Y-87599321D01*
X119370320Y-87612779D01*
X119346964Y-87626029D01*
X119315640Y-87665718D01*
X119305362Y-87716275D01*
X119305198Y-87724703D01*
X119312159Y-87775017D01*
X119333042Y-87821423D01*
X119367114Y-87859586D01*
X119410813Y-87884384D01*
X119414131Y-87885659D01*
X119465212Y-87898468D01*
X119515148Y-87903878D01*
X119568004Y-87905443D01*
X119950000Y-87905443D01*
X119950000Y-88029030D01*
G37*
G36*
X119950000Y-85856001D02*
G01*
X119637369Y-85973482D01*
X119637369Y-86394556D01*
X119950000Y-86505198D01*
X119950000Y-86646615D01*
X118933949Y-86259979D01*
X118933949Y-86191346D01*
X119039706Y-86191346D01*
X119088097Y-86201879D01*
X119136304Y-86214427D01*
X119184329Y-86228990D01*
X119232170Y-86245568D01*
X119527948Y-86356210D01*
X119527948Y-86014759D01*
X119248778Y-86119783D01*
X119202656Y-86136959D01*
X119152885Y-86154806D01*
X119101327Y-86172311D01*
X119050112Y-86188319D01*
X119039706Y-86191346D01*
X118933949Y-86191346D01*
X118933949Y-86116364D01*
X119950000Y-85704326D01*
X119950000Y-85856001D01*
G37*
G36*
X119836671Y-85348953D02*
G01*
X119950000Y-85331123D01*
X119961723Y-85380582D01*
X119965631Y-85424424D01*
X119962084Y-85474197D01*
X119947979Y-85521733D01*
X119944138Y-85528960D01*
X119911718Y-85566779D01*
X119887229Y-85581228D01*
X119837137Y-85591922D01*
X119784720Y-85595414D01*
X119738974Y-85596127D01*
X119313014Y-85596127D01*
X119313014Y-85686985D01*
X119215317Y-85686985D01*
X119215317Y-85596127D01*
X119037997Y-85596127D01*
X118965212Y-85473272D01*
X119215317Y-85473272D01*
X119215317Y-85348953D01*
X119313014Y-85348953D01*
X119313014Y-85473272D01*
X119748988Y-85473272D01*
X119799685Y-85471034D01*
X119818597Y-85466922D01*
X119843265Y-85445673D01*
X119852302Y-85403175D01*
X119839464Y-85355157D01*
X119836671Y-85348953D01*
G37*
G36*
X119836671Y-84960118D02*
G01*
X119950000Y-84942288D01*
X119961723Y-84991748D01*
X119965631Y-85035589D01*
X119962084Y-85085362D01*
X119947979Y-85132898D01*
X119944138Y-85140125D01*
X119911718Y-85177945D01*
X119887229Y-85192393D01*
X119837137Y-85203087D01*
X119784720Y-85206579D01*
X119738974Y-85207292D01*
X119313014Y-85207292D01*
X119313014Y-85298150D01*
X119215317Y-85298150D01*
X119215317Y-85207292D01*
X119037997Y-85207292D01*
X118965212Y-85084438D01*
X119215317Y-85084438D01*
X119215317Y-84960118D01*
X119313014Y-84960118D01*
X119313014Y-85084438D01*
X119748988Y-85084438D01*
X119799685Y-85082199D01*
X119818597Y-85078087D01*
X119843265Y-85056838D01*
X119852302Y-85014340D01*
X119839464Y-84966322D01*
X119836671Y-84960118D01*
G37*
G36*
X119074633Y-84840439D02*
G01*
X118933949Y-84840439D01*
X118933949Y-84716852D01*
X119074633Y-84716852D01*
X119074633Y-84840439D01*
G37*
G36*
X119950000Y-84840439D02*
G01*
X119215317Y-84840439D01*
X119215317Y-84716852D01*
X119950000Y-84716852D01*
X119950000Y-84840439D01*
G37*
G36*
X119950000Y-84530495D02*
G01*
X119215317Y-84530495D01*
X119215317Y-84419364D01*
X119318387Y-84419364D01*
X119278047Y-84386715D01*
X119246053Y-84349034D01*
X119219276Y-84298713D01*
X119205366Y-84250130D01*
X119199801Y-84196515D01*
X119199685Y-84187090D01*
X119203636Y-84135282D01*
X119215487Y-84087022D01*
X119223621Y-84065945D01*
X119247250Y-84022809D01*
X119281352Y-83986676D01*
X119286147Y-83983147D01*
X119331286Y-83958510D01*
X119377983Y-83944556D01*
X119429256Y-83939220D01*
X119483129Y-83937778D01*
X119498883Y-83937718D01*
X119950000Y-83937718D01*
X119950000Y-84061304D01*
X119502058Y-84061304D01*
X119450332Y-84063331D01*
X119400937Y-84071563D01*
X119388241Y-84075715D01*
X119346930Y-84102505D01*
X119327913Y-84127006D01*
X119309546Y-84172318D01*
X119305198Y-84213224D01*
X119311173Y-84264921D01*
X119329095Y-84311539D01*
X119355757Y-84349511D01*
X119396252Y-84379779D01*
X119447912Y-84397435D01*
X119498056Y-84404890D01*
X119547976Y-84406908D01*
X119950000Y-84406908D01*
X119950000Y-84530495D01*
G37*
G36*
X120232344Y-83757466D02*
G01*
X120118771Y-83771144D01*
X120128464Y-83722347D01*
X120129762Y-83700314D01*
X120123067Y-83651628D01*
X120115596Y-83634612D01*
X120082204Y-83597934D01*
X120076029Y-83593824D01*
X120029985Y-83573750D01*
X119981018Y-83556210D01*
X119950000Y-83545219D01*
X119215317Y-83821946D01*
X119215317Y-83688834D01*
X119640544Y-83536915D01*
X119686676Y-83520774D01*
X119734121Y-83505600D01*
X119782881Y-83491391D01*
X119810537Y-83483914D01*
X119762643Y-83471305D01*
X119715405Y-83457382D01*
X119668825Y-83442145D01*
X119643230Y-83433112D01*
X119215317Y-83277285D01*
X119215317Y-83153698D01*
X119961723Y-83431158D01*
X120011006Y-83449754D01*
X120058484Y-83468660D01*
X120104566Y-83488772D01*
X120128053Y-83500523D01*
X120169578Y-83526626D01*
X120206303Y-83560553D01*
X120218178Y-83576238D01*
X120239794Y-83622889D01*
X120246971Y-83674165D01*
X120246999Y-83677843D01*
X120240688Y-83728223D01*
X120232344Y-83757466D01*
G37*
G36*
X119715749Y-82429004D02*
G01*
X119766244Y-82442117D01*
X119812788Y-82463973D01*
X119855382Y-82494571D01*
X119877948Y-82515980D01*
X119912113Y-82558702D01*
X119937888Y-82606941D01*
X119955270Y-82660697D01*
X119963490Y-82711163D01*
X119965631Y-82756315D01*
X119962540Y-82810168D01*
X119953266Y-82859985D01*
X119934633Y-82913004D01*
X119907585Y-82960530D01*
X119877704Y-82996894D01*
X119837048Y-83032487D01*
X119792232Y-83059338D01*
X119743255Y-83077447D01*
X119690117Y-83086814D01*
X119657885Y-83088241D01*
X119605305Y-83084300D01*
X119557747Y-83072476D01*
X119510797Y-83050093D01*
X119493754Y-83038415D01*
X119456512Y-83003148D01*
X119427522Y-82959628D01*
X119408488Y-82913404D01*
X119403628Y-82896510D01*
X119381264Y-82944700D01*
X119350283Y-82986540D01*
X119322540Y-83010572D01*
X119276249Y-83034609D01*
X119227436Y-83045920D01*
X119196266Y-83047697D01*
X119142930Y-83042766D01*
X119094050Y-83027974D01*
X119049629Y-83003321D01*
X119009665Y-82968806D01*
X118976539Y-82925987D01*
X118952878Y-82876666D01*
X118939938Y-82828175D01*
X118934245Y-82774705D01*
X118933949Y-82758513D01*
X118934047Y-82757048D01*
X119035554Y-82757048D01*
X119042011Y-82806770D01*
X119063580Y-82852962D01*
X119081472Y-82874528D01*
X119121803Y-82904733D01*
X119171999Y-82920040D01*
X119191625Y-82921179D01*
X119242287Y-82914722D01*
X119288720Y-82893153D01*
X119310083Y-82875261D01*
X119339813Y-82833240D01*
X119353804Y-82786437D01*
X119355757Y-82759002D01*
X119457606Y-82759002D01*
X119463235Y-82810717D01*
X119480122Y-82856565D01*
X119508267Y-82896546D01*
X119515247Y-82903838D01*
X119553935Y-82933977D01*
X119602993Y-82954237D01*
X119653502Y-82960935D01*
X119658862Y-82960990D01*
X119710580Y-82954762D01*
X119757625Y-82937610D01*
X119760711Y-82936078D01*
X119802081Y-82907180D01*
X119833684Y-82867656D01*
X119837159Y-82861584D01*
X119856444Y-82813437D01*
X119863921Y-82761964D01*
X119864026Y-82754849D01*
X119858492Y-82702595D01*
X119841892Y-82656351D01*
X119810848Y-82612425D01*
X119807362Y-82608792D01*
X119768788Y-82578267D01*
X119719416Y-82557747D01*
X119668220Y-82550963D01*
X119662770Y-82550907D01*
X119610210Y-82556727D01*
X119563661Y-82574186D01*
X119523122Y-82603285D01*
X119515736Y-82610502D01*
X119485081Y-82650506D01*
X119465780Y-82696330D01*
X119457833Y-82747974D01*
X119457606Y-82759002D01*
X119355757Y-82759002D01*
X119356001Y-82755582D01*
X119349578Y-82705699D01*
X119328124Y-82659799D01*
X119310327Y-82638590D01*
X119269832Y-82609018D01*
X119222564Y-82594522D01*
X119198464Y-82592916D01*
X119149898Y-82599545D01*
X119104261Y-82621688D01*
X119082693Y-82640055D01*
X119052173Y-82681987D01*
X119037212Y-82731577D01*
X119035554Y-82757048D01*
X118934047Y-82757048D01*
X118937654Y-82703277D01*
X118948769Y-82652973D01*
X118967293Y-82607600D01*
X118997538Y-82561786D01*
X119011374Y-82546266D01*
X119052086Y-82511004D01*
X119097042Y-82485816D01*
X119146242Y-82470703D01*
X119199685Y-82465666D01*
X119250232Y-82470852D01*
X119299177Y-82488176D01*
X119323028Y-82502547D01*
X119361545Y-82538642D01*
X119390088Y-82583196D01*
X119403628Y-82614166D01*
X119423463Y-82565475D01*
X119449172Y-82523817D01*
X119484625Y-82485778D01*
X119500837Y-82472993D01*
X119545368Y-82447491D01*
X119595004Y-82431434D01*
X119644040Y-82425058D01*
X119661304Y-82424633D01*
X119715749Y-82429004D01*
G37*
G36*
X119684263Y-82308129D02*
G01*
X119673272Y-82178192D01*
X119722987Y-82167072D01*
X119769479Y-82147647D01*
X119809986Y-82117685D01*
X119816154Y-82111270D01*
X119845326Y-82068829D01*
X119861034Y-82020274D01*
X119864026Y-81984508D01*
X119857300Y-81931461D01*
X119837121Y-81883757D01*
X119803490Y-81841396D01*
X119795150Y-81833565D01*
X119752871Y-81803577D01*
X119703521Y-81783402D01*
X119653719Y-81773709D01*
X119612700Y-81771528D01*
X119561455Y-81775252D01*
X119510628Y-81788347D01*
X119467027Y-81810870D01*
X119441974Y-81831123D01*
X119409002Y-81871819D01*
X119388241Y-81919718D01*
X119379998Y-81968986D01*
X119379448Y-81986706D01*
X119384871Y-82036654D01*
X119402717Y-82085294D01*
X119407780Y-82094417D01*
X119437869Y-82135017D01*
X119475472Y-82166602D01*
X119481053Y-82170132D01*
X119465910Y-82286147D01*
X118949581Y-82188695D01*
X118949581Y-81687752D01*
X119066817Y-81687752D01*
X119066817Y-82089776D01*
X119337438Y-82143998D01*
X119311366Y-82098035D01*
X119292742Y-82051003D01*
X119281568Y-82002902D01*
X119277843Y-81953733D01*
X119282238Y-81898006D01*
X119295421Y-81846229D01*
X119317393Y-81798402D01*
X119348155Y-81754526D01*
X119369678Y-81731228D01*
X119412274Y-81695825D01*
X119459919Y-81669117D01*
X119512612Y-81651106D01*
X119561796Y-81642588D01*
X119605617Y-81640369D01*
X119655778Y-81643169D01*
X119710977Y-81653510D01*
X119762600Y-81671472D01*
X119810647Y-81697054D01*
X119842777Y-81719993D01*
X119884528Y-81758836D01*
X119917641Y-81802642D01*
X119942116Y-81851411D01*
X119957953Y-81905144D01*
X119964551Y-81953712D01*
X119965631Y-81984508D01*
X119962926Y-82034296D01*
X119952934Y-82087889D01*
X119935578Y-82136644D01*
X119910859Y-82180560D01*
X119888695Y-82208967D01*
X119852532Y-82243348D01*
X119811578Y-82270623D01*
X119765832Y-82290792D01*
X119715294Y-82303855D01*
X119684263Y-82308129D01*
G37*
G36*
X121630000Y-89487404D02*
G01*
X120613949Y-89487404D01*
X120613949Y-89354047D01*
X121036001Y-89354047D01*
X121036001Y-88830635D01*
X120613949Y-88830635D01*
X120613949Y-88697278D01*
X121630000Y-88697278D01*
X121630000Y-88830635D01*
X121153237Y-88830635D01*
X121153237Y-89354047D01*
X121630000Y-89354047D01*
X121630000Y-89487404D01*
G37*
G36*
X121630000Y-87996301D02*
G01*
X121581313Y-88013603D01*
X121537676Y-88020969D01*
X121568180Y-88059189D01*
X121595638Y-88100748D01*
X121618018Y-88145362D01*
X121621207Y-88153349D01*
X121636090Y-88202282D01*
X121644105Y-88253825D01*
X121645631Y-88289637D01*
X121642791Y-88339557D01*
X121632590Y-88390111D01*
X121612246Y-88438701D01*
X121586280Y-88474528D01*
X121545966Y-88508532D01*
X121499211Y-88529941D01*
X121446017Y-88538757D01*
X121434605Y-88539009D01*
X121385865Y-88533642D01*
X121338490Y-88516087D01*
X121335687Y-88514584D01*
X121295265Y-88486435D01*
X121263879Y-88450837D01*
X121238796Y-88405970D01*
X121222847Y-88361688D01*
X121212673Y-88312544D01*
X121205172Y-88260824D01*
X121204040Y-88251779D01*
X121197022Y-88198407D01*
X121188226Y-88143151D01*
X121177373Y-88089246D01*
X121164141Y-88040390D01*
X121161053Y-88031228D01*
X121258750Y-88031228D01*
X121274908Y-88079919D01*
X121286700Y-88128317D01*
X121296192Y-88177553D01*
X121304912Y-88233217D01*
X121313716Y-88284118D01*
X121326631Y-88332539D01*
X121330069Y-88341172D01*
X121359723Y-88381756D01*
X121370858Y-88390020D01*
X121418547Y-88406516D01*
X121430697Y-88407117D01*
X121479400Y-88396571D01*
X121514473Y-88369748D01*
X121538490Y-88326919D01*
X121547411Y-88277558D01*
X121547934Y-88260083D01*
X121543503Y-88208678D01*
X121528703Y-88158105D01*
X121516427Y-88133077D01*
X121486799Y-88092708D01*
X121446327Y-88060144D01*
X121429720Y-88051256D01*
X121381199Y-88036880D01*
X121329553Y-88031717D01*
X121304668Y-88031228D01*
X121258750Y-88031228D01*
X121161053Y-88031228D01*
X121128813Y-88030739D01*
X121078793Y-88035651D01*
X121033752Y-88055604D01*
X121023056Y-88065666D01*
X120997605Y-88107695D01*
X120984594Y-88157626D01*
X120981290Y-88206594D01*
X120984153Y-88256630D01*
X120995144Y-88304899D01*
X121010600Y-88335310D01*
X121047952Y-88369514D01*
X121096298Y-88391516D01*
X121114159Y-88396859D01*
X121097550Y-88517759D01*
X121049266Y-88503859D01*
X121004427Y-88483034D01*
X120976161Y-88463538D01*
X120942004Y-88427256D01*
X120916770Y-88383962D01*
X120904842Y-88354361D01*
X120890520Y-88302477D01*
X120882658Y-88250652D01*
X120879784Y-88200216D01*
X120879685Y-88188520D01*
X120881444Y-88138801D01*
X120887521Y-88090038D01*
X120900544Y-88040528D01*
X120901912Y-88036845D01*
X120923343Y-87991705D01*
X120955275Y-87952856D01*
X120957355Y-87951116D01*
X121000640Y-87925322D01*
X121042107Y-87912526D01*
X121093979Y-87907588D01*
X121146506Y-87906443D01*
X121156657Y-87906420D01*
X121322498Y-87906420D01*
X121373576Y-87906229D01*
X121426653Y-87905496D01*
X121477247Y-87903947D01*
X121528356Y-87900436D01*
X121541828Y-87898604D01*
X121589581Y-87885697D01*
X121630000Y-87867096D01*
X121630000Y-87996301D01*
G37*
G36*
X121364263Y-87242323D02*
G01*
X121380139Y-87120690D01*
X121432053Y-87132421D01*
X121478801Y-87150089D01*
X121525901Y-87177551D01*
X121566255Y-87212768D01*
X121575289Y-87222784D01*
X121606064Y-87266168D01*
X121628046Y-87314253D01*
X121641235Y-87367040D01*
X121645562Y-87417085D01*
X121645631Y-87424528D01*
X121642179Y-87478613D01*
X121631824Y-87528576D01*
X121614564Y-87574417D01*
X121585703Y-87622690D01*
X121553486Y-87659601D01*
X121547445Y-87665352D01*
X121507537Y-87696230D01*
X121461636Y-87720719D01*
X121409741Y-87738819D01*
X121361917Y-87749023D01*
X121309931Y-87754791D01*
X121265345Y-87756210D01*
X121214839Y-87754340D01*
X121160609Y-87747624D01*
X121110104Y-87736022D01*
X121063324Y-87719536D01*
X121057739Y-87717131D01*
X121011128Y-87691805D01*
X120971589Y-87660064D01*
X120939120Y-87621910D01*
X120924138Y-87597941D01*
X120902650Y-87551777D01*
X120888194Y-87503410D01*
X120880771Y-87452841D01*
X120879685Y-87423796D01*
X120882572Y-87373837D01*
X120892941Y-87321836D01*
X120910851Y-87275270D01*
X120940013Y-87229378D01*
X120977947Y-87191097D01*
X121023879Y-87161432D01*
X121071423Y-87142297D01*
X121111228Y-87132414D01*
X121129790Y-87252581D01*
X121083269Y-87267621D01*
X121039527Y-87293431D01*
X121018660Y-87313642D01*
X120991837Y-87358425D01*
X120981619Y-87407486D01*
X120981290Y-87418911D01*
X120986623Y-87468748D01*
X121005056Y-87517596D01*
X121036654Y-87559576D01*
X121048702Y-87570830D01*
X121092822Y-87599048D01*
X121142453Y-87616378D01*
X121193919Y-87625556D01*
X121244005Y-87628976D01*
X121261926Y-87629204D01*
X121314588Y-87627220D01*
X121368842Y-87619892D01*
X121421373Y-87604906D01*
X121468392Y-87579616D01*
X121477103Y-87572784D01*
X121512395Y-87534182D01*
X121534615Y-87488902D01*
X121543765Y-87436943D01*
X121544026Y-87425750D01*
X121537844Y-87374562D01*
X121517193Y-87326782D01*
X121500062Y-87304361D01*
X121460243Y-87272739D01*
X121412035Y-87252563D01*
X121364263Y-87242323D01*
G37*
G36*
X121630000Y-87018108D02*
G01*
X120613949Y-87018108D01*
X120613949Y-86894521D01*
X121194270Y-86894521D01*
X120895317Y-86601919D01*
X120895317Y-86441939D01*
X121167892Y-86720865D01*
X121630000Y-86413607D01*
X121630000Y-86566259D01*
X121254354Y-86807327D01*
X121338862Y-86894521D01*
X121630000Y-86894521D01*
X121630000Y-87018108D01*
G37*
G36*
X121301737Y-85688695D02*
G01*
X121301737Y-86232868D01*
X121350505Y-86227281D01*
X121399800Y-86214542D01*
X121447046Y-86192110D01*
X121481744Y-86164968D01*
X121514588Y-86123719D01*
X121535268Y-86076602D01*
X121543783Y-86023617D01*
X121544026Y-86012316D01*
X121538181Y-85960413D01*
X121518813Y-85911820D01*
X121508611Y-85896301D01*
X121472862Y-85860512D01*
X121427485Y-85833344D01*
X121395526Y-85820097D01*
X121411158Y-85692114D01*
X121457500Y-85707830D01*
X121504624Y-85731831D01*
X121545519Y-85762273D01*
X121580186Y-85799158D01*
X121584082Y-85804221D01*
X121611010Y-85847956D01*
X121630244Y-85897339D01*
X121640762Y-85945182D01*
X121645391Y-85997350D01*
X121645631Y-86013049D01*
X121642153Y-86070714D01*
X121631721Y-86123725D01*
X121614333Y-86172083D01*
X121589989Y-86215786D01*
X121558691Y-86254835D01*
X121546713Y-86266817D01*
X121506727Y-86298691D01*
X121461144Y-86323970D01*
X121409962Y-86342655D01*
X121353181Y-86354745D01*
X121301587Y-86359782D01*
X121268764Y-86360607D01*
X121213007Y-86358293D01*
X121161293Y-86351352D01*
X121113621Y-86339784D01*
X121061752Y-86319794D01*
X121015705Y-86293141D01*
X120981779Y-86265840D01*
X120947083Y-86228320D01*
X120919566Y-86186832D01*
X120899227Y-86141377D01*
X120886066Y-86091955D01*
X120880084Y-86038566D01*
X120879685Y-86019888D01*
X120879784Y-86018422D01*
X120981290Y-86018422D01*
X120987110Y-86069050D01*
X121006956Y-86118625D01*
X121037219Y-86158133D01*
X121040886Y-86161793D01*
X121082044Y-86192939D01*
X121131027Y-86214019D01*
X121181800Y-86224385D01*
X121200132Y-86226029D01*
X121200132Y-85818632D01*
X121149827Y-85825679D01*
X121098733Y-85840747D01*
X121056029Y-85865282D01*
X121019900Y-85901292D01*
X120993625Y-85947784D01*
X120982458Y-85995460D01*
X120981290Y-86018422D01*
X120879784Y-86018422D01*
X120883266Y-85966914D01*
X120894008Y-85917718D01*
X120915591Y-85865098D01*
X120946922Y-85817620D01*
X120981535Y-85781018D01*
X121022639Y-85749477D01*
X121069565Y-85724461D01*
X121122313Y-85705971D01*
X121170717Y-85695548D01*
X121223163Y-85689656D01*
X121268032Y-85688206D01*
X121301737Y-85688695D01*
G37*
G36*
X121630000Y-85039986D02*
G01*
X121581313Y-85057288D01*
X121537676Y-85064654D01*
X121568180Y-85102873D01*
X121595638Y-85144433D01*
X121618018Y-85189046D01*
X121621207Y-85197034D01*
X121636090Y-85245966D01*
X121644105Y-85297509D01*
X121645631Y-85333321D01*
X121642791Y-85383241D01*
X121632590Y-85433796D01*
X121612246Y-85482386D01*
X121586280Y-85518213D01*
X121545966Y-85552216D01*
X121499211Y-85573626D01*
X121446017Y-85582441D01*
X121434605Y-85582693D01*
X121385865Y-85577326D01*
X121338490Y-85559772D01*
X121335687Y-85558269D01*
X121295265Y-85530120D01*
X121263879Y-85494521D01*
X121238796Y-85449655D01*
X121222847Y-85405373D01*
X121212673Y-85356229D01*
X121205172Y-85304508D01*
X121204040Y-85295464D01*
X121197022Y-85242092D01*
X121188226Y-85186835D01*
X121177373Y-85132930D01*
X121164141Y-85084074D01*
X121161053Y-85074912D01*
X121258750Y-85074912D01*
X121274908Y-85123603D01*
X121286700Y-85172002D01*
X121296192Y-85221237D01*
X121304912Y-85276901D01*
X121313716Y-85327803D01*
X121326631Y-85376224D01*
X121330069Y-85384856D01*
X121359723Y-85425440D01*
X121370858Y-85433705D01*
X121418547Y-85450201D01*
X121430697Y-85450802D01*
X121479400Y-85440255D01*
X121514473Y-85413433D01*
X121538490Y-85370603D01*
X121547411Y-85321243D01*
X121547934Y-85303768D01*
X121543503Y-85252362D01*
X121528703Y-85201789D01*
X121516427Y-85176762D01*
X121486799Y-85136393D01*
X121446327Y-85103829D01*
X121429720Y-85094940D01*
X121381199Y-85080565D01*
X121329553Y-85075401D01*
X121304668Y-85074912D01*
X121258750Y-85074912D01*
X121161053Y-85074912D01*
X121128813Y-85074424D01*
X121078793Y-85079335D01*
X121033752Y-85099289D01*
X121023056Y-85109351D01*
X120997605Y-85151379D01*
X120984594Y-85201311D01*
X120981290Y-85250279D01*
X120984153Y-85300315D01*
X120995144Y-85348584D01*
X121010600Y-85378995D01*
X121047952Y-85413198D01*
X121096298Y-85435201D01*
X121114159Y-85440544D01*
X121097550Y-85561444D01*
X121049266Y-85547544D01*
X121004427Y-85526718D01*
X120976161Y-85507222D01*
X120942004Y-85470940D01*
X120916770Y-85427646D01*
X120904842Y-85398046D01*
X120890520Y-85346162D01*
X120882658Y-85294337D01*
X120879784Y-85243901D01*
X120879685Y-85232205D01*
X120881444Y-85182486D01*
X120887521Y-85133723D01*
X120900544Y-85084212D01*
X120901912Y-85080530D01*
X120923343Y-85035390D01*
X120955275Y-84996541D01*
X120957355Y-84994801D01*
X121000640Y-84969006D01*
X121042107Y-84956210D01*
X121093979Y-84951273D01*
X121146506Y-84950128D01*
X121156657Y-84950104D01*
X121322498Y-84950104D01*
X121373576Y-84949913D01*
X121426653Y-84949181D01*
X121477247Y-84947631D01*
X121528356Y-84944120D01*
X121541828Y-84942288D01*
X121589581Y-84929382D01*
X121630000Y-84910781D01*
X121630000Y-85039986D01*
G37*
G36*
X121630000Y-84559560D02*
G01*
X120895317Y-84837020D01*
X120895317Y-84706350D01*
X121336175Y-84549790D01*
X121385871Y-84532817D01*
X121436894Y-84516826D01*
X121484431Y-84503140D01*
X121437502Y-84488897D01*
X121388630Y-84472704D01*
X121344480Y-84457222D01*
X120895317Y-84295045D01*
X120895317Y-84167794D01*
X121630000Y-84444033D01*
X121630000Y-84559560D01*
G37*
G36*
X121301737Y-83431891D02*
G01*
X121301737Y-83976064D01*
X121350505Y-83970477D01*
X121399800Y-83957738D01*
X121447046Y-83935306D01*
X121481744Y-83908164D01*
X121514588Y-83866915D01*
X121535268Y-83819798D01*
X121543783Y-83766813D01*
X121544026Y-83755512D01*
X121538181Y-83703609D01*
X121518813Y-83655016D01*
X121508611Y-83639497D01*
X121472862Y-83603708D01*
X121427485Y-83576540D01*
X121395526Y-83563293D01*
X121411158Y-83435310D01*
X121457500Y-83451026D01*
X121504624Y-83475027D01*
X121545519Y-83505470D01*
X121580186Y-83542354D01*
X121584082Y-83547418D01*
X121611010Y-83591152D01*
X121630244Y-83640535D01*
X121640762Y-83688378D01*
X121645391Y-83740546D01*
X121645631Y-83756245D01*
X121642153Y-83813910D01*
X121631721Y-83866921D01*
X121614333Y-83915279D01*
X121589989Y-83958982D01*
X121558691Y-83998031D01*
X121546713Y-84010013D01*
X121506727Y-84041887D01*
X121461144Y-84067166D01*
X121409962Y-84085851D01*
X121353181Y-84097941D01*
X121301587Y-84102978D01*
X121268764Y-84103803D01*
X121213007Y-84101489D01*
X121161293Y-84094548D01*
X121113621Y-84082980D01*
X121061752Y-84062990D01*
X121015705Y-84036337D01*
X120981779Y-84009036D01*
X120947083Y-83971516D01*
X120919566Y-83930028D01*
X120899227Y-83884573D01*
X120886066Y-83835151D01*
X120880084Y-83781762D01*
X120879685Y-83763084D01*
X120879784Y-83761618D01*
X120981290Y-83761618D01*
X120987110Y-83812246D01*
X121006956Y-83861821D01*
X121037219Y-83901329D01*
X121040886Y-83904989D01*
X121082044Y-83936135D01*
X121131027Y-83957215D01*
X121181800Y-83967581D01*
X121200132Y-83969225D01*
X121200132Y-83561828D01*
X121149827Y-83568875D01*
X121098733Y-83583943D01*
X121056029Y-83608478D01*
X121019900Y-83644489D01*
X120993625Y-83690981D01*
X120982458Y-83738656D01*
X120981290Y-83761618D01*
X120879784Y-83761618D01*
X120883266Y-83710110D01*
X120894008Y-83660914D01*
X120915591Y-83608294D01*
X120946922Y-83560817D01*
X120981535Y-83524214D01*
X121022639Y-83492673D01*
X121069565Y-83467657D01*
X121122313Y-83449167D01*
X121170717Y-83438744D01*
X121223163Y-83432852D01*
X121268032Y-83431402D01*
X121301737Y-83431891D01*
G37*
G36*
X121630000Y-83286810D02*
G01*
X120613949Y-83286810D01*
X120613949Y-83162979D01*
X121630000Y-83162979D01*
X121630000Y-83286810D01*
G37*
D11*
X119661905Y-81054819D02*
X119661905Y-80054819D01*
X119661905Y-80054819D02*
X119900000Y-80054819D01*
X119900000Y-80054819D02*
X120042857Y-80102438D01*
X120042857Y-80102438D02*
X120138095Y-80197676D01*
X120138095Y-80197676D02*
X120185714Y-80292914D01*
X120185714Y-80292914D02*
X120233333Y-80483390D01*
X120233333Y-80483390D02*
X120233333Y-80626247D01*
X120233333Y-80626247D02*
X120185714Y-80816723D01*
X120185714Y-80816723D02*
X120138095Y-80911961D01*
X120138095Y-80911961D02*
X120042857Y-81007200D01*
X120042857Y-81007200D02*
X119900000Y-81054819D01*
X119900000Y-81054819D02*
X119661905Y-81054819D01*
X121138095Y-80054819D02*
X120661905Y-80054819D01*
X120661905Y-80054819D02*
X120614286Y-80531009D01*
X120614286Y-80531009D02*
X120661905Y-80483390D01*
X120661905Y-80483390D02*
X120757143Y-80435771D01*
X120757143Y-80435771D02*
X120995238Y-80435771D01*
X120995238Y-80435771D02*
X121090476Y-80483390D01*
X121090476Y-80483390D02*
X121138095Y-80531009D01*
X121138095Y-80531009D02*
X121185714Y-80626247D01*
X121185714Y-80626247D02*
X121185714Y-80864342D01*
X121185714Y-80864342D02*
X121138095Y-80959580D01*
X121138095Y-80959580D02*
X121090476Y-81007200D01*
X121090476Y-81007200D02*
X120995238Y-81054819D01*
X120995238Y-81054819D02*
X120757143Y-81054819D01*
X120757143Y-81054819D02*
X120661905Y-81007200D01*
X120661905Y-81007200D02*
X120614286Y-80959580D01*
X118761905Y-64854819D02*
X118761905Y-63854819D01*
X118761905Y-63854819D02*
X119000000Y-63854819D01*
X119000000Y-63854819D02*
X119142857Y-63902438D01*
X119142857Y-63902438D02*
X119238095Y-63997676D01*
X119238095Y-63997676D02*
X119285714Y-64092914D01*
X119285714Y-64092914D02*
X119333333Y-64283390D01*
X119333333Y-64283390D02*
X119333333Y-64426247D01*
X119333333Y-64426247D02*
X119285714Y-64616723D01*
X119285714Y-64616723D02*
X119238095Y-64711961D01*
X119238095Y-64711961D02*
X119142857Y-64807200D01*
X119142857Y-64807200D02*
X119000000Y-64854819D01*
X119000000Y-64854819D02*
X118761905Y-64854819D01*
X119666667Y-63854819D02*
X120333333Y-63854819D01*
X120333333Y-63854819D02*
X119904762Y-64854819D01*
X110266667Y-83157200D02*
X110409524Y-83204819D01*
X110409524Y-83204819D02*
X110647619Y-83204819D01*
X110647619Y-83204819D02*
X110742857Y-83157200D01*
X110742857Y-83157200D02*
X110790476Y-83109580D01*
X110790476Y-83109580D02*
X110838095Y-83014342D01*
X110838095Y-83014342D02*
X110838095Y-82919104D01*
X110838095Y-82919104D02*
X110790476Y-82823866D01*
X110790476Y-82823866D02*
X110742857Y-82776247D01*
X110742857Y-82776247D02*
X110647619Y-82728628D01*
X110647619Y-82728628D02*
X110457143Y-82681009D01*
X110457143Y-82681009D02*
X110361905Y-82633390D01*
X110361905Y-82633390D02*
X110314286Y-82585771D01*
X110314286Y-82585771D02*
X110266667Y-82490533D01*
X110266667Y-82490533D02*
X110266667Y-82395295D01*
X110266667Y-82395295D02*
X110314286Y-82300057D01*
X110314286Y-82300057D02*
X110361905Y-82252438D01*
X110361905Y-82252438D02*
X110457143Y-82204819D01*
X110457143Y-82204819D02*
X110695238Y-82204819D01*
X110695238Y-82204819D02*
X110838095Y-82252438D01*
X111171429Y-82204819D02*
X111409524Y-83204819D01*
X111409524Y-83204819D02*
X111600000Y-82490533D01*
X111600000Y-82490533D02*
X111790476Y-83204819D01*
X111790476Y-83204819D02*
X112028572Y-82204819D01*
X112933333Y-83204819D02*
X112361905Y-83204819D01*
X112647619Y-83204819D02*
X112647619Y-82204819D01*
X112647619Y-82204819D02*
X112552381Y-82347676D01*
X112552381Y-82347676D02*
X112457143Y-82442914D01*
X112457143Y-82442914D02*
X112361905Y-82490533D01*
X102464819Y-94233333D02*
X103179104Y-94233333D01*
X103179104Y-94233333D02*
X103321961Y-94280952D01*
X103321961Y-94280952D02*
X103417200Y-94376190D01*
X103417200Y-94376190D02*
X103464819Y-94519047D01*
X103464819Y-94519047D02*
X103464819Y-94614285D01*
X103464819Y-93233333D02*
X103464819Y-93804761D01*
X103464819Y-93519047D02*
X102464819Y-93519047D01*
X102464819Y-93519047D02*
X102607676Y-93614285D01*
X102607676Y-93614285D02*
X102702914Y-93709523D01*
X102702914Y-93709523D02*
X102750533Y-93804761D01*
X114038095Y-81554819D02*
X114038095Y-82364342D01*
X114038095Y-82364342D02*
X114085714Y-82459580D01*
X114085714Y-82459580D02*
X114133333Y-82507200D01*
X114133333Y-82507200D02*
X114228571Y-82554819D01*
X114228571Y-82554819D02*
X114419047Y-82554819D01*
X114419047Y-82554819D02*
X114514285Y-82507200D01*
X114514285Y-82507200D02*
X114561904Y-82459580D01*
X114561904Y-82459580D02*
X114609523Y-82364342D01*
X114609523Y-82364342D02*
X114609523Y-81554819D01*
X115609523Y-82554819D02*
X115038095Y-82554819D01*
X115323809Y-82554819D02*
X115323809Y-81554819D01*
X115323809Y-81554819D02*
X115228571Y-81697676D01*
X115228571Y-81697676D02*
X115133333Y-81792914D01*
X115133333Y-81792914D02*
X115038095Y-81840533D01*
X107861905Y-70954819D02*
X107861905Y-69954819D01*
X107861905Y-69954819D02*
X108100000Y-69954819D01*
X108100000Y-69954819D02*
X108242857Y-70002438D01*
X108242857Y-70002438D02*
X108338095Y-70097676D01*
X108338095Y-70097676D02*
X108385714Y-70192914D01*
X108385714Y-70192914D02*
X108433333Y-70383390D01*
X108433333Y-70383390D02*
X108433333Y-70526247D01*
X108433333Y-70526247D02*
X108385714Y-70716723D01*
X108385714Y-70716723D02*
X108338095Y-70811961D01*
X108338095Y-70811961D02*
X108242857Y-70907200D01*
X108242857Y-70907200D02*
X108100000Y-70954819D01*
X108100000Y-70954819D02*
X107861905Y-70954819D01*
X109290476Y-70288152D02*
X109290476Y-70954819D01*
X109052381Y-69907200D02*
X108814286Y-70621485D01*
X108814286Y-70621485D02*
X109433333Y-70621485D01*
X118761905Y-72754819D02*
X118761905Y-71754819D01*
X118761905Y-71754819D02*
X119000000Y-71754819D01*
X119000000Y-71754819D02*
X119142857Y-71802438D01*
X119142857Y-71802438D02*
X119238095Y-71897676D01*
X119238095Y-71897676D02*
X119285714Y-71992914D01*
X119285714Y-71992914D02*
X119333333Y-72183390D01*
X119333333Y-72183390D02*
X119333333Y-72326247D01*
X119333333Y-72326247D02*
X119285714Y-72516723D01*
X119285714Y-72516723D02*
X119238095Y-72611961D01*
X119238095Y-72611961D02*
X119142857Y-72707200D01*
X119142857Y-72707200D02*
X119000000Y-72754819D01*
X119000000Y-72754819D02*
X118761905Y-72754819D01*
X120190476Y-71754819D02*
X120000000Y-71754819D01*
X120000000Y-71754819D02*
X119904762Y-71802438D01*
X119904762Y-71802438D02*
X119857143Y-71850057D01*
X119857143Y-71850057D02*
X119761905Y-71992914D01*
X119761905Y-71992914D02*
X119714286Y-72183390D01*
X119714286Y-72183390D02*
X119714286Y-72564342D01*
X119714286Y-72564342D02*
X119761905Y-72659580D01*
X119761905Y-72659580D02*
X119809524Y-72707200D01*
X119809524Y-72707200D02*
X119904762Y-72754819D01*
X119904762Y-72754819D02*
X120095238Y-72754819D01*
X120095238Y-72754819D02*
X120190476Y-72707200D01*
X120190476Y-72707200D02*
X120238095Y-72659580D01*
X120238095Y-72659580D02*
X120285714Y-72564342D01*
X120285714Y-72564342D02*
X120285714Y-72326247D01*
X120285714Y-72326247D02*
X120238095Y-72231009D01*
X120238095Y-72231009D02*
X120190476Y-72183390D01*
X120190476Y-72183390D02*
X120095238Y-72135771D01*
X120095238Y-72135771D02*
X119904762Y-72135771D01*
X119904762Y-72135771D02*
X119809524Y-72183390D01*
X119809524Y-72183390D02*
X119761905Y-72231009D01*
X119761905Y-72231009D02*
X119714286Y-72326247D01*
X102661905Y-64754819D02*
X102661905Y-63754819D01*
X102661905Y-63754819D02*
X102900000Y-63754819D01*
X102900000Y-63754819D02*
X103042857Y-63802438D01*
X103042857Y-63802438D02*
X103138095Y-63897676D01*
X103138095Y-63897676D02*
X103185714Y-63992914D01*
X103185714Y-63992914D02*
X103233333Y-64183390D01*
X103233333Y-64183390D02*
X103233333Y-64326247D01*
X103233333Y-64326247D02*
X103185714Y-64516723D01*
X103185714Y-64516723D02*
X103138095Y-64611961D01*
X103138095Y-64611961D02*
X103042857Y-64707200D01*
X103042857Y-64707200D02*
X102900000Y-64754819D01*
X102900000Y-64754819D02*
X102661905Y-64754819D01*
X104185714Y-64754819D02*
X103614286Y-64754819D01*
X103900000Y-64754819D02*
X103900000Y-63754819D01*
X103900000Y-63754819D02*
X103804762Y-63897676D01*
X103804762Y-63897676D02*
X103709524Y-63992914D01*
X103709524Y-63992914D02*
X103614286Y-64040533D01*
X103333333Y-76854819D02*
X103000000Y-76378628D01*
X102761905Y-76854819D02*
X102761905Y-75854819D01*
X102761905Y-75854819D02*
X103142857Y-75854819D01*
X103142857Y-75854819D02*
X103238095Y-75902438D01*
X103238095Y-75902438D02*
X103285714Y-75950057D01*
X103285714Y-75950057D02*
X103333333Y-76045295D01*
X103333333Y-76045295D02*
X103333333Y-76188152D01*
X103333333Y-76188152D02*
X103285714Y-76283390D01*
X103285714Y-76283390D02*
X103238095Y-76331009D01*
X103238095Y-76331009D02*
X103142857Y-76378628D01*
X103142857Y-76378628D02*
X102761905Y-76378628D01*
X103714286Y-75950057D02*
X103761905Y-75902438D01*
X103761905Y-75902438D02*
X103857143Y-75854819D01*
X103857143Y-75854819D02*
X104095238Y-75854819D01*
X104095238Y-75854819D02*
X104190476Y-75902438D01*
X104190476Y-75902438D02*
X104238095Y-75950057D01*
X104238095Y-75950057D02*
X104285714Y-76045295D01*
X104285714Y-76045295D02*
X104285714Y-76140533D01*
X104285714Y-76140533D02*
X104238095Y-76283390D01*
X104238095Y-76283390D02*
X103666667Y-76854819D01*
X103666667Y-76854819D02*
X104285714Y-76854819D01*
X119433333Y-68654819D02*
X119100000Y-68178628D01*
X118861905Y-68654819D02*
X118861905Y-67654819D01*
X118861905Y-67654819D02*
X119242857Y-67654819D01*
X119242857Y-67654819D02*
X119338095Y-67702438D01*
X119338095Y-67702438D02*
X119385714Y-67750057D01*
X119385714Y-67750057D02*
X119433333Y-67845295D01*
X119433333Y-67845295D02*
X119433333Y-67988152D01*
X119433333Y-67988152D02*
X119385714Y-68083390D01*
X119385714Y-68083390D02*
X119338095Y-68131009D01*
X119338095Y-68131009D02*
X119242857Y-68178628D01*
X119242857Y-68178628D02*
X118861905Y-68178628D01*
X120290476Y-67988152D02*
X120290476Y-68654819D01*
X120052381Y-67607200D02*
X119814286Y-68321485D01*
X119814286Y-68321485D02*
X120433333Y-68321485D01*
X111533333Y-72559580D02*
X111485714Y-72607200D01*
X111485714Y-72607200D02*
X111342857Y-72654819D01*
X111342857Y-72654819D02*
X111247619Y-72654819D01*
X111247619Y-72654819D02*
X111104762Y-72607200D01*
X111104762Y-72607200D02*
X111009524Y-72511961D01*
X111009524Y-72511961D02*
X110961905Y-72416723D01*
X110961905Y-72416723D02*
X110914286Y-72226247D01*
X110914286Y-72226247D02*
X110914286Y-72083390D01*
X110914286Y-72083390D02*
X110961905Y-71892914D01*
X110961905Y-71892914D02*
X111009524Y-71797676D01*
X111009524Y-71797676D02*
X111104762Y-71702438D01*
X111104762Y-71702438D02*
X111247619Y-71654819D01*
X111247619Y-71654819D02*
X111342857Y-71654819D01*
X111342857Y-71654819D02*
X111485714Y-71702438D01*
X111485714Y-71702438D02*
X111533333Y-71750057D01*
X112485714Y-72654819D02*
X111914286Y-72654819D01*
X112200000Y-72654819D02*
X112200000Y-71654819D01*
X112200000Y-71654819D02*
X112104762Y-71797676D01*
X112104762Y-71797676D02*
X112009524Y-71892914D01*
X112009524Y-71892914D02*
X111914286Y-71940533D01*
X102761905Y-81054819D02*
X102761905Y-80054819D01*
X102761905Y-80054819D02*
X103000000Y-80054819D01*
X103000000Y-80054819D02*
X103142857Y-80102438D01*
X103142857Y-80102438D02*
X103238095Y-80197676D01*
X103238095Y-80197676D02*
X103285714Y-80292914D01*
X103285714Y-80292914D02*
X103333333Y-80483390D01*
X103333333Y-80483390D02*
X103333333Y-80626247D01*
X103333333Y-80626247D02*
X103285714Y-80816723D01*
X103285714Y-80816723D02*
X103238095Y-80911961D01*
X103238095Y-80911961D02*
X103142857Y-81007200D01*
X103142857Y-81007200D02*
X103000000Y-81054819D01*
X103000000Y-81054819D02*
X102761905Y-81054819D01*
X103666667Y-80054819D02*
X104285714Y-80054819D01*
X104285714Y-80054819D02*
X103952381Y-80435771D01*
X103952381Y-80435771D02*
X104095238Y-80435771D01*
X104095238Y-80435771D02*
X104190476Y-80483390D01*
X104190476Y-80483390D02*
X104238095Y-80531009D01*
X104238095Y-80531009D02*
X104285714Y-80626247D01*
X104285714Y-80626247D02*
X104285714Y-80864342D01*
X104285714Y-80864342D02*
X104238095Y-80959580D01*
X104238095Y-80959580D02*
X104190476Y-81007200D01*
X104190476Y-81007200D02*
X104095238Y-81054819D01*
X104095238Y-81054819D02*
X103809524Y-81054819D01*
X103809524Y-81054819D02*
X103714286Y-81007200D01*
X103714286Y-81007200D02*
X103666667Y-80959580D01*
X102261905Y-72754819D02*
X102261905Y-71754819D01*
X102261905Y-71754819D02*
X102500000Y-71754819D01*
X102500000Y-71754819D02*
X102642857Y-71802438D01*
X102642857Y-71802438D02*
X102738095Y-71897676D01*
X102738095Y-71897676D02*
X102785714Y-71992914D01*
X102785714Y-71992914D02*
X102833333Y-72183390D01*
X102833333Y-72183390D02*
X102833333Y-72326247D01*
X102833333Y-72326247D02*
X102785714Y-72516723D01*
X102785714Y-72516723D02*
X102738095Y-72611961D01*
X102738095Y-72611961D02*
X102642857Y-72707200D01*
X102642857Y-72707200D02*
X102500000Y-72754819D01*
X102500000Y-72754819D02*
X102261905Y-72754819D01*
X103214286Y-71850057D02*
X103261905Y-71802438D01*
X103261905Y-71802438D02*
X103357143Y-71754819D01*
X103357143Y-71754819D02*
X103595238Y-71754819D01*
X103595238Y-71754819D02*
X103690476Y-71802438D01*
X103690476Y-71802438D02*
X103738095Y-71850057D01*
X103738095Y-71850057D02*
X103785714Y-71945295D01*
X103785714Y-71945295D02*
X103785714Y-72040533D01*
X103785714Y-72040533D02*
X103738095Y-72183390D01*
X103738095Y-72183390D02*
X103166667Y-72754819D01*
X103166667Y-72754819D02*
X103785714Y-72754819D01*
X102933333Y-68554819D02*
X102600000Y-68078628D01*
X102361905Y-68554819D02*
X102361905Y-67554819D01*
X102361905Y-67554819D02*
X102742857Y-67554819D01*
X102742857Y-67554819D02*
X102838095Y-67602438D01*
X102838095Y-67602438D02*
X102885714Y-67650057D01*
X102885714Y-67650057D02*
X102933333Y-67745295D01*
X102933333Y-67745295D02*
X102933333Y-67888152D01*
X102933333Y-67888152D02*
X102885714Y-67983390D01*
X102885714Y-67983390D02*
X102838095Y-68031009D01*
X102838095Y-68031009D02*
X102742857Y-68078628D01*
X102742857Y-68078628D02*
X102361905Y-68078628D01*
X103885714Y-68554819D02*
X103314286Y-68554819D01*
X103600000Y-68554819D02*
X103600000Y-67554819D01*
X103600000Y-67554819D02*
X103504762Y-67697676D01*
X103504762Y-67697676D02*
X103409524Y-67792914D01*
X103409524Y-67792914D02*
X103314286Y-67840533D01*
X119433333Y-76754819D02*
X119100000Y-76278628D01*
X118861905Y-76754819D02*
X118861905Y-75754819D01*
X118861905Y-75754819D02*
X119242857Y-75754819D01*
X119242857Y-75754819D02*
X119338095Y-75802438D01*
X119338095Y-75802438D02*
X119385714Y-75850057D01*
X119385714Y-75850057D02*
X119433333Y-75945295D01*
X119433333Y-75945295D02*
X119433333Y-76088152D01*
X119433333Y-76088152D02*
X119385714Y-76183390D01*
X119385714Y-76183390D02*
X119338095Y-76231009D01*
X119338095Y-76231009D02*
X119242857Y-76278628D01*
X119242857Y-76278628D02*
X118861905Y-76278628D01*
X119766667Y-75754819D02*
X120385714Y-75754819D01*
X120385714Y-75754819D02*
X120052381Y-76135771D01*
X120052381Y-76135771D02*
X120195238Y-76135771D01*
X120195238Y-76135771D02*
X120290476Y-76183390D01*
X120290476Y-76183390D02*
X120338095Y-76231009D01*
X120338095Y-76231009D02*
X120385714Y-76326247D01*
X120385714Y-76326247D02*
X120385714Y-76564342D01*
X120385714Y-76564342D02*
X120338095Y-76659580D01*
X120338095Y-76659580D02*
X120290476Y-76707200D01*
X120290476Y-76707200D02*
X120195238Y-76754819D01*
X120195238Y-76754819D02*
X119909524Y-76754819D01*
X119909524Y-76754819D02*
X119814286Y-76707200D01*
X119814286Y-76707200D02*
X119766667Y-76659580D01*
D12*
%TO.C,G\u002A\u002A\u002A*%
G36*
X116208523Y-63931646D02*
G01*
X116197806Y-63942363D01*
X116187089Y-63931646D01*
X116197806Y-63920928D01*
X116208523Y-63931646D01*
G37*
G36*
X116272827Y-63974515D02*
G01*
X116262110Y-63985232D01*
X116251393Y-63974515D01*
X116262110Y-63963797D01*
X116272827Y-63974515D01*
G37*
G36*
X116594346Y-64660422D02*
G01*
X116583629Y-64671139D01*
X116572912Y-64660422D01*
X116583629Y-64649705D01*
X116594346Y-64660422D01*
G37*
G36*
X116637215Y-64831899D02*
G01*
X116626498Y-64842616D01*
X116615781Y-64831899D01*
X116626498Y-64821181D01*
X116637215Y-64831899D01*
G37*
G36*
X116637215Y-65046245D02*
G01*
X116626498Y-65056962D01*
X116615781Y-65046245D01*
X116626498Y-65035527D01*
X116637215Y-65046245D01*
G37*
G36*
X115858425Y-63863769D02*
G01*
X115860990Y-63889207D01*
X115858425Y-63892349D01*
X115845682Y-63889406D01*
X115844135Y-63878059D01*
X115851978Y-63860416D01*
X115858425Y-63863769D01*
G37*
G36*
X115901294Y-63820900D02*
G01*
X115898352Y-63833643D01*
X115887004Y-63835190D01*
X115869361Y-63827347D01*
X115872715Y-63820900D01*
X115898153Y-63818335D01*
X115901294Y-63820900D01*
G37*
G36*
X116780113Y-64742588D02*
G01*
X116782678Y-64768026D01*
X116780113Y-64771167D01*
X116767370Y-64768225D01*
X116765823Y-64756878D01*
X116773666Y-64739235D01*
X116780113Y-64742588D01*
G37*
G36*
X115619639Y-64546671D02*
G01*
X115613207Y-64562616D01*
X115593203Y-64573305D01*
X115568161Y-64579831D01*
X115578435Y-64564129D01*
X115581204Y-64561306D01*
X115609307Y-64544376D01*
X115619639Y-64546671D01*
G37*
G36*
X115546962Y-64925978D02*
G01*
X115574987Y-64954558D01*
X115604409Y-65011989D01*
X115597755Y-65059276D01*
X115565485Y-65099831D01*
X115505271Y-65137266D01*
X115444565Y-65134701D01*
X115406257Y-65109017D01*
X115378220Y-65058168D01*
X115374231Y-64998217D01*
X115393515Y-64947103D01*
X115414034Y-64929109D01*
X115486379Y-64908029D01*
X115546962Y-64925978D01*
G37*
G36*
X110975229Y-64955636D02*
G01*
X111027160Y-64978716D01*
X111065868Y-65012444D01*
X111105513Y-65059367D01*
X111127162Y-65099146D01*
X111128523Y-65107147D01*
X111136116Y-65156052D01*
X111141534Y-65173099D01*
X111142498Y-65187695D01*
X111127722Y-65197441D01*
X111090661Y-65203279D01*
X111024769Y-65206149D01*
X110923500Y-65206994D01*
X110905753Y-65207004D01*
X110656962Y-65207004D01*
X110656962Y-65151274D01*
X110675139Y-65093124D01*
X110725488Y-65027084D01*
X110729840Y-65022667D01*
X110783845Y-64975836D01*
X110835085Y-64954643D01*
X110902965Y-64949789D01*
X110975229Y-64955636D01*
G37*
G36*
X113930971Y-65309600D02*
G01*
X113936139Y-65332650D01*
X113936456Y-65357735D01*
X113918478Y-65467802D01*
X113866073Y-65554702D01*
X113781862Y-65614478D01*
X113708919Y-65643874D01*
X113654367Y-65652983D01*
X113599734Y-65643405D01*
X113568868Y-65632937D01*
X113519292Y-65597808D01*
X113485322Y-65547526D01*
X113470216Y-65496964D01*
X113480213Y-65457023D01*
X113501481Y-65425344D01*
X113533661Y-65392583D01*
X113580385Y-65367570D01*
X113652398Y-65345554D01*
X113713635Y-65331500D01*
X113812330Y-65310660D01*
X113876498Y-65299480D01*
X113913568Y-65298835D01*
X113930971Y-65309600D01*
G37*
G36*
X114778252Y-64968592D02*
G01*
X114849068Y-65023150D01*
X114897136Y-65110683D01*
X114920475Y-65228412D01*
X114922447Y-65280594D01*
X114909493Y-65409872D01*
X114872531Y-65513946D01*
X114814412Y-65588509D01*
X114737987Y-65629254D01*
X114687394Y-65635696D01*
X114620694Y-65626309D01*
X114564683Y-65603585D01*
X114562706Y-65602243D01*
X114501811Y-65538904D01*
X114465265Y-65448756D01*
X114451182Y-65326743D01*
X114450886Y-65302405D01*
X114463104Y-65163780D01*
X114499349Y-65058832D01*
X114559007Y-64988479D01*
X114641464Y-64953638D01*
X114686667Y-64949789D01*
X114778252Y-64968592D01*
G37*
G36*
X106736142Y-65781824D02*
G01*
X106812314Y-65800747D01*
X106893256Y-65843884D01*
X106975067Y-65912384D01*
X107043104Y-65992188D01*
X107078341Y-66056187D01*
X107098902Y-66163099D01*
X107090015Y-66282105D01*
X107055184Y-66398255D01*
X106997913Y-66496596D01*
X106967388Y-66529568D01*
X106861707Y-66599088D01*
X106738369Y-66635504D01*
X106608970Y-66637046D01*
X106487046Y-66602833D01*
X106397021Y-66544740D01*
X106316780Y-66462703D01*
X106261730Y-66372737D01*
X106258878Y-66365681D01*
X106245239Y-66309364D01*
X106237246Y-66236153D01*
X106236517Y-66214430D01*
X106254283Y-66083939D01*
X106306661Y-65970761D01*
X106387344Y-65879430D01*
X106490023Y-65814475D01*
X106608391Y-65780429D01*
X106736142Y-65781824D01*
G37*
G36*
X106821313Y-65715353D02*
G01*
X106949221Y-65772832D01*
X107054957Y-65865992D01*
X107133598Y-65989367D01*
X107178679Y-66131090D01*
X107181812Y-66271935D01*
X107143752Y-66407222D01*
X107065252Y-66532274D01*
X107041904Y-66558725D01*
X106927144Y-66652964D01*
X106797172Y-66710182D01*
X106658670Y-66728654D01*
X106518319Y-66706655D01*
X106496716Y-66699471D01*
X106372272Y-66634569D01*
X106274433Y-66542728D01*
X106204623Y-66431044D01*
X106164264Y-66306613D01*
X106160379Y-66253334D01*
X106200622Y-66253334D01*
X106210265Y-66319015D01*
X106237729Y-66389938D01*
X106249475Y-66414505D01*
X106329363Y-66533868D01*
X106432804Y-66619380D01*
X106554413Y-66668820D01*
X106688805Y-66679967D01*
X106825796Y-66652258D01*
X106925185Y-66599626D01*
X107016426Y-66518068D01*
X107087320Y-66420487D01*
X107121113Y-66339846D01*
X107136552Y-66204734D01*
X107113749Y-66071294D01*
X107056296Y-65948986D01*
X106967782Y-65847275D01*
X106920799Y-65812053D01*
X106866636Y-65780769D01*
X106814474Y-65763012D01*
X106748705Y-65755166D01*
X106668561Y-65753586D01*
X106578827Y-65755698D01*
X106516356Y-65764459D01*
X106465650Y-65783511D01*
X106416888Y-65812715D01*
X106309702Y-65905921D01*
X106239760Y-66019943D01*
X106205712Y-66157051D01*
X106204475Y-66169337D01*
X106200622Y-66253334D01*
X106160379Y-66253334D01*
X106154779Y-66176529D01*
X106177591Y-66047888D01*
X106234124Y-65927786D01*
X106321712Y-65826868D01*
X106433365Y-65748479D01*
X106553411Y-65706481D01*
X106674608Y-65695713D01*
X106821313Y-65715353D01*
G37*
G36*
X111998300Y-63449424D02*
G01*
X112582273Y-63449599D01*
X113125186Y-63449895D01*
X113627947Y-63450316D01*
X114091459Y-63450866D01*
X114516628Y-63451549D01*
X114904360Y-63452368D01*
X115255559Y-63453327D01*
X115571131Y-63454431D01*
X115851981Y-63455683D01*
X116099014Y-63457088D01*
X116313136Y-63458647D01*
X116495251Y-63460367D01*
X116646265Y-63462250D01*
X116767083Y-63464301D01*
X116858610Y-63466523D01*
X116921752Y-63468920D01*
X116957414Y-63471496D01*
X116966079Y-63473165D01*
X117023642Y-63521403D01*
X117058120Y-63597011D01*
X117065068Y-63659363D01*
X117064229Y-63717300D01*
X117035162Y-63650517D01*
X116984649Y-63585417D01*
X116936347Y-63559420D01*
X116916211Y-63556683D01*
X116871374Y-63554134D01*
X116800823Y-63551767D01*
X116703547Y-63549578D01*
X116578532Y-63547563D01*
X116424767Y-63545717D01*
X116241239Y-63544036D01*
X116026937Y-63542515D01*
X115780849Y-63541150D01*
X115501961Y-63539937D01*
X115189263Y-63538871D01*
X114841741Y-63537948D01*
X114458385Y-63537162D01*
X114038180Y-63536511D01*
X113580116Y-63535989D01*
X113083180Y-63535592D01*
X112546361Y-63535315D01*
X111968645Y-63535155D01*
X111381476Y-63535105D01*
X110802375Y-63535080D01*
X110264608Y-63535028D01*
X109766637Y-63534981D01*
X109306926Y-63534972D01*
X108883940Y-63535037D01*
X108496141Y-63535207D01*
X108141993Y-63535516D01*
X107819960Y-63535997D01*
X107528507Y-63536685D01*
X107266095Y-63537612D01*
X107031190Y-63538811D01*
X106822255Y-63540317D01*
X106637753Y-63542162D01*
X106476148Y-63544379D01*
X106335905Y-63547003D01*
X106215486Y-63550067D01*
X106113355Y-63553603D01*
X106027977Y-63557646D01*
X105957814Y-63562229D01*
X105901331Y-63567385D01*
X105856991Y-63573147D01*
X105823258Y-63579549D01*
X105798595Y-63586624D01*
X105781467Y-63594406D01*
X105770337Y-63602928D01*
X105763668Y-63612223D01*
X105759925Y-63622325D01*
X105757571Y-63633268D01*
X105755070Y-63645083D01*
X105751034Y-63657448D01*
X105741651Y-63701673D01*
X105735196Y-63782928D01*
X105731612Y-63902771D01*
X105730846Y-64062759D01*
X105731939Y-64198075D01*
X105737722Y-64678641D01*
X105846947Y-64703228D01*
X105981290Y-64754113D01*
X106091712Y-64839868D01*
X106176127Y-64958470D01*
X106220360Y-65065353D01*
X106239145Y-65175270D01*
X106236239Y-65301448D01*
X106213610Y-65425587D01*
X106173227Y-65529388D01*
X106169811Y-65535377D01*
X106102153Y-65632882D01*
X106025013Y-65703322D01*
X105927697Y-65753919D01*
X105799509Y-65791891D01*
X105784938Y-65795193D01*
X105724982Y-65808497D01*
X105731352Y-66367022D01*
X105737722Y-66925547D01*
X105797862Y-66977246D01*
X105858003Y-67028945D01*
X111388343Y-67028945D01*
X112023494Y-67028881D01*
X112616498Y-67028688D01*
X113168078Y-67028362D01*
X113678957Y-67027900D01*
X114149858Y-67027300D01*
X114581502Y-67026559D01*
X114974613Y-67025672D01*
X115329912Y-67024638D01*
X115648123Y-67023454D01*
X115929969Y-67022116D01*
X116176171Y-67020621D01*
X116387452Y-67018967D01*
X116564535Y-67017150D01*
X116708143Y-67015168D01*
X116818997Y-67013017D01*
X116897821Y-67010695D01*
X116945338Y-67008198D01*
X116961888Y-67005823D01*
X117000720Y-66970665D01*
X117035384Y-66917322D01*
X117036612Y-66914726D01*
X117068131Y-66846751D01*
X117057218Y-66929789D01*
X117040709Y-66995203D01*
X117014406Y-67047553D01*
X117009915Y-67053038D01*
X117005282Y-67057201D01*
X116998168Y-67061067D01*
X116987030Y-67064646D01*
X116970328Y-67067950D01*
X116946520Y-67070989D01*
X116914063Y-67073775D01*
X116871418Y-67076318D01*
X116817042Y-67078630D01*
X116749393Y-67080722D01*
X116666931Y-67082604D01*
X116568114Y-67084288D01*
X116451400Y-67085784D01*
X116315247Y-67087105D01*
X116158115Y-67088260D01*
X115978461Y-67089260D01*
X115774745Y-67090118D01*
X115545425Y-67090843D01*
X115288958Y-67091447D01*
X115003805Y-67091941D01*
X114688422Y-67092336D01*
X114341270Y-67092642D01*
X113960805Y-67092872D01*
X113545488Y-67093035D01*
X113093775Y-67093144D01*
X112604126Y-67093208D01*
X112074999Y-67093239D01*
X111504853Y-67093249D01*
X111385739Y-67093249D01*
X105797952Y-67093249D01*
X105757120Y-67048155D01*
X105745207Y-67032432D01*
X105735774Y-67011269D01*
X105728475Y-66979718D01*
X105722965Y-66932832D01*
X105718898Y-66865664D01*
X105715928Y-66773266D01*
X105713712Y-66650691D01*
X105711903Y-66492992D01*
X105710930Y-66386421D01*
X105705572Y-65769782D01*
X105786232Y-65756884D01*
X105851962Y-65737431D01*
X105929061Y-65702335D01*
X105967480Y-65680196D01*
X106076959Y-65587565D01*
X106153667Y-65473953D01*
X106196895Y-65346764D01*
X106205932Y-65213405D01*
X106180069Y-65081283D01*
X106118594Y-64957804D01*
X106044994Y-64871809D01*
X105919884Y-64779500D01*
X105782234Y-64727153D01*
X105776005Y-64725774D01*
X105707116Y-64710942D01*
X105707048Y-64142105D01*
X105706979Y-63573268D01*
X105768930Y-63511317D01*
X105830880Y-63449367D01*
X111372364Y-63449367D01*
X111998300Y-63449424D01*
G37*
G36*
X116978613Y-63634452D02*
G01*
X116986937Y-63645699D01*
X116994151Y-63658776D01*
X117000333Y-63676647D01*
X117005564Y-63702279D01*
X117009922Y-63738638D01*
X117013488Y-63788690D01*
X117016342Y-63855403D01*
X117018561Y-63941741D01*
X117020226Y-64050671D01*
X117021417Y-64185160D01*
X117022213Y-64348173D01*
X117022694Y-64542678D01*
X117022939Y-64771639D01*
X117023027Y-65038023D01*
X117023038Y-65291592D01*
X117023018Y-65591556D01*
X117022905Y-65851601D01*
X117022621Y-66074674D01*
X117022087Y-66263725D01*
X117021226Y-66421703D01*
X117019960Y-66551557D01*
X117018209Y-66656235D01*
X117015897Y-66738687D01*
X117012944Y-66801863D01*
X117009272Y-66848709D01*
X117004803Y-66882177D01*
X116999460Y-66905215D01*
X116993163Y-66920771D01*
X116985835Y-66931796D01*
X116979334Y-66939165D01*
X116935630Y-66986076D01*
X111395621Y-66986076D01*
X110819915Y-66986073D01*
X110285528Y-66986057D01*
X109790906Y-66986015D01*
X109334499Y-66985935D01*
X108914756Y-66985806D01*
X108530124Y-66985616D01*
X108179053Y-66985353D01*
X107859991Y-66985004D01*
X107571386Y-66984558D01*
X107311687Y-66984004D01*
X107079343Y-66983329D01*
X106872801Y-66982520D01*
X106690512Y-66981568D01*
X106530922Y-66980458D01*
X106392481Y-66979180D01*
X106273637Y-66977722D01*
X106172838Y-66976071D01*
X106088534Y-66974216D01*
X106019173Y-66972145D01*
X105963203Y-66969846D01*
X105919072Y-66967307D01*
X105885230Y-66964515D01*
X105860125Y-66961460D01*
X105842205Y-66958130D01*
X105829920Y-66954511D01*
X105821716Y-66950594D01*
X105816044Y-66946364D01*
X105812743Y-66943207D01*
X105799464Y-66927807D01*
X105789246Y-66907913D01*
X105781692Y-66878155D01*
X105776400Y-66833161D01*
X105772973Y-66767562D01*
X105771009Y-66675987D01*
X105770110Y-66553064D01*
X105769876Y-66393424D01*
X105769874Y-66366858D01*
X105769874Y-65833379D01*
X105849513Y-65818438D01*
X105947231Y-65790776D01*
X106029703Y-65743200D01*
X106111462Y-65666813D01*
X106128904Y-65647413D01*
X106209854Y-65527901D01*
X106258294Y-65395942D01*
X106276047Y-65258039D01*
X106264934Y-65120696D01*
X106226780Y-64990416D01*
X106163407Y-64873703D01*
X106076637Y-64777060D01*
X105968294Y-64706989D01*
X105855612Y-64672314D01*
X105780591Y-64659718D01*
X105780157Y-64622791D01*
X105812743Y-64622791D01*
X105894803Y-64635913D01*
X106005219Y-64674090D01*
X106107767Y-64747931D01*
X106196223Y-64850265D01*
X106264360Y-64973917D01*
X106305455Y-65109045D01*
X106317951Y-65273301D01*
X106294665Y-65428639D01*
X106238869Y-65569403D01*
X106153839Y-65689940D01*
X106042849Y-65784596D01*
X105909171Y-65847718D01*
X105871688Y-65858126D01*
X105812743Y-65872294D01*
X105812743Y-66382029D01*
X105813468Y-66560477D01*
X105815746Y-66699206D01*
X105819724Y-66801342D01*
X105825555Y-66870011D01*
X105833388Y-66908340D01*
X105838464Y-66917485D01*
X105850429Y-66920290D01*
X105881332Y-66922901D01*
X105932398Y-66925323D01*
X106004854Y-66927563D01*
X106099923Y-66929626D01*
X106218831Y-66931518D01*
X106362803Y-66933244D01*
X106533065Y-66934810D01*
X106730840Y-66936222D01*
X106957355Y-66937486D01*
X107213835Y-66938606D01*
X107501504Y-66939589D01*
X107821588Y-66940441D01*
X108175312Y-66941167D01*
X108563900Y-66941772D01*
X108988579Y-66942263D01*
X109450573Y-66942645D01*
X109951107Y-66942924D01*
X110491406Y-66943105D01*
X111072696Y-66943195D01*
X111399989Y-66943207D01*
X111975537Y-66943202D01*
X112509763Y-66943181D01*
X113004211Y-66943132D01*
X113460427Y-66943043D01*
X113879957Y-66942903D01*
X114264348Y-66942700D01*
X114615145Y-66942423D01*
X114933893Y-66942061D01*
X115222139Y-66941601D01*
X115481429Y-66941032D01*
X115713308Y-66940342D01*
X115919322Y-66939521D01*
X116101017Y-66938556D01*
X116259940Y-66937437D01*
X116397635Y-66936151D01*
X116515649Y-66934686D01*
X116615528Y-66933033D01*
X116698816Y-66931178D01*
X116767062Y-66929110D01*
X116821809Y-66926819D01*
X116864604Y-66924291D01*
X116896993Y-66921517D01*
X116920522Y-66918483D01*
X116936737Y-66915180D01*
X116947183Y-66911594D01*
X116953406Y-66907715D01*
X116956952Y-66903532D01*
X116957980Y-66901747D01*
X116962857Y-66870668D01*
X116967134Y-66796875D01*
X116970808Y-66680516D01*
X116973879Y-66521744D01*
X116976344Y-66320707D01*
X116978201Y-66077557D01*
X116979447Y-65792443D01*
X116980082Y-65465515D01*
X116980169Y-65274248D01*
X116980095Y-64972958D01*
X116979835Y-64711665D01*
X116979328Y-64487496D01*
X116978514Y-64297578D01*
X116977335Y-64139039D01*
X116975729Y-64009007D01*
X116973638Y-63904608D01*
X116971002Y-63822971D01*
X116967761Y-63761222D01*
X116963855Y-63716490D01*
X116959224Y-63685902D01*
X116953809Y-63666585D01*
X116947550Y-63655667D01*
X116946486Y-63654527D01*
X116940153Y-63650998D01*
X116927456Y-63647721D01*
X116906871Y-63644688D01*
X116876875Y-63641889D01*
X116835945Y-63639315D01*
X116782557Y-63636957D01*
X116715189Y-63634805D01*
X116632318Y-63632851D01*
X116532418Y-63631084D01*
X116413969Y-63629496D01*
X116275446Y-63628078D01*
X116115325Y-63626820D01*
X115932085Y-63625713D01*
X115724201Y-63624748D01*
X115490150Y-63623915D01*
X115228409Y-63623206D01*
X114937454Y-63622611D01*
X114615763Y-63622120D01*
X114261813Y-63621725D01*
X113874079Y-63621416D01*
X113451038Y-63621185D01*
X112991168Y-63621021D01*
X112492945Y-63620916D01*
X111954845Y-63620860D01*
X111396456Y-63620844D01*
X110818440Y-63620861D01*
X110281769Y-63620919D01*
X109784921Y-63621026D01*
X109326373Y-63621192D01*
X108904600Y-63621426D01*
X108518081Y-63621738D01*
X108165291Y-63622136D01*
X107844707Y-63622630D01*
X107554807Y-63623229D01*
X107294066Y-63623943D01*
X107060961Y-63624780D01*
X106853970Y-63625750D01*
X106671569Y-63626862D01*
X106512235Y-63628125D01*
X106374443Y-63629549D01*
X106256672Y-63631143D01*
X106157398Y-63632916D01*
X106075098Y-63634877D01*
X106008248Y-63637036D01*
X105955324Y-63639402D01*
X105914805Y-63641984D01*
X105885166Y-63644791D01*
X105864885Y-63647832D01*
X105852437Y-63651117D01*
X105846426Y-63654527D01*
X105835133Y-63671426D01*
X105826613Y-63700153D01*
X105820499Y-63746161D01*
X105816424Y-63814901D01*
X105814023Y-63911822D01*
X105812928Y-64042378D01*
X105812743Y-64155500D01*
X105812743Y-64622791D01*
X105780157Y-64622791D01*
X105774821Y-64168894D01*
X105774675Y-64155500D01*
X105773103Y-64011463D01*
X105772425Y-63891182D01*
X105773220Y-63802336D01*
X105775926Y-63739211D01*
X105780979Y-63696092D01*
X105788813Y-63667264D01*
X105799865Y-63647012D01*
X105814570Y-63629621D01*
X105816068Y-63628022D01*
X105863085Y-63577975D01*
X111398637Y-63577975D01*
X116934188Y-63577975D01*
X116978613Y-63634452D01*
G37*
G36*
X107334599Y-62881350D02*
G01*
X107334599Y-63299325D01*
X107613249Y-63299325D01*
X107891899Y-63299325D01*
X107977637Y-63299325D01*
X108406329Y-63299325D01*
X108835021Y-63299325D01*
X109520928Y-63299325D01*
X109949620Y-63299325D01*
X110378312Y-63299325D01*
X110378312Y-62924219D01*
X110378312Y-62549114D01*
X109949620Y-62549114D01*
X109520928Y-62549114D01*
X109520928Y-62924219D01*
X109520928Y-63299325D01*
X108835021Y-63299325D01*
X108835021Y-62913502D01*
X108835021Y-62527679D01*
X108406329Y-62527679D01*
X107977637Y-62527679D01*
X107977637Y-62913502D01*
X107977637Y-63299325D01*
X107891899Y-63299325D01*
X107891899Y-62913502D01*
X107891899Y-62881350D01*
X107891899Y-62463376D01*
X108395149Y-62463376D01*
X108898399Y-62463376D01*
X108904221Y-62875992D01*
X108910042Y-63288608D01*
X109175192Y-63288608D01*
X109440341Y-63288608D01*
X109440247Y-62924219D01*
X109440235Y-62875992D01*
X109440128Y-62463376D01*
X109952089Y-62463376D01*
X110464051Y-62463376D01*
X110464051Y-62881350D01*
X110464051Y-63299325D01*
X110710549Y-63299325D01*
X110957047Y-63299325D01*
X111042785Y-63299325D01*
X111471477Y-63299325D01*
X111900169Y-63299325D01*
X111900169Y-62902785D01*
X111900169Y-62506245D01*
X111471477Y-62506245D01*
X111042785Y-62506245D01*
X111042785Y-62902785D01*
X111042785Y-63299325D01*
X110957047Y-63299325D01*
X110957047Y-62902785D01*
X110957047Y-62881350D01*
X110957047Y-62463376D01*
X111471477Y-62463376D01*
X111985907Y-62463376D01*
X111985907Y-62881350D01*
X111985907Y-63299325D01*
X112243123Y-63299325D01*
X112500338Y-63299325D01*
X112586076Y-63299325D01*
X113014768Y-63299325D01*
X113443460Y-63299325D01*
X113443460Y-62924219D01*
X113443460Y-62549114D01*
X113014768Y-62549114D01*
X112586076Y-62549114D01*
X112586076Y-62924219D01*
X112586076Y-63299325D01*
X112500338Y-63299325D01*
X112500338Y-62924219D01*
X112500338Y-62881350D01*
X112500338Y-62463376D01*
X113014768Y-62463376D01*
X113529199Y-62463376D01*
X113529199Y-62881350D01*
X113529199Y-63299325D01*
X113786414Y-63299325D01*
X114043629Y-63299325D01*
X114129367Y-63299325D01*
X114558059Y-63299325D01*
X114986751Y-63299325D01*
X114986751Y-62924219D01*
X114986751Y-62549114D01*
X114558059Y-62549114D01*
X114129367Y-62549114D01*
X114129367Y-62924219D01*
X114129367Y-63299325D01*
X114043629Y-63299325D01*
X114043629Y-62924219D01*
X114043629Y-62892067D01*
X114043629Y-62484810D01*
X114558059Y-62484810D01*
X115072490Y-62484810D01*
X115072490Y-62892727D01*
X115072490Y-63300644D01*
X115130040Y-63299325D01*
X115672658Y-63299325D01*
X116101350Y-63299325D01*
X116530042Y-63299325D01*
X116530042Y-62924219D01*
X116530042Y-62549114D01*
X116101350Y-62549114D01*
X115672658Y-62549114D01*
X115672658Y-62924219D01*
X115672658Y-63299325D01*
X115130040Y-63299325D01*
X115335063Y-63294626D01*
X115597637Y-63288608D01*
X115602925Y-62924219D01*
X115603469Y-62886709D01*
X115609301Y-62484810D01*
X116091106Y-62484810D01*
X116572912Y-62484810D01*
X116572912Y-62879057D01*
X116573346Y-63020392D01*
X116574965Y-63124585D01*
X116578246Y-63197359D01*
X116583666Y-63244437D01*
X116591700Y-63271540D01*
X116602825Y-63284391D01*
X116606817Y-63286314D01*
X116643243Y-63292384D01*
X116709847Y-63296943D01*
X116793945Y-63299208D01*
X116817993Y-63299325D01*
X116913217Y-63301302D01*
X116978750Y-63308930D01*
X117027659Y-63324749D01*
X117068096Y-63347980D01*
X117094075Y-63364718D01*
X117116824Y-63379837D01*
X117136557Y-63396131D01*
X117153489Y-63416399D01*
X117167833Y-63443437D01*
X117179802Y-63480041D01*
X117189609Y-63529008D01*
X117197470Y-63593136D01*
X117203597Y-63675220D01*
X117208204Y-63778058D01*
X117211504Y-63904446D01*
X117213712Y-64057181D01*
X117215041Y-64239059D01*
X117215704Y-64452878D01*
X117215915Y-64701434D01*
X117215888Y-64987523D01*
X117215836Y-65282025D01*
X117215814Y-65595220D01*
X117215719Y-65868414D01*
X117215477Y-66104477D01*
X117215017Y-66306276D01*
X117214267Y-66476681D01*
X117213155Y-66618561D01*
X117211608Y-66734783D01*
X117209554Y-66828218D01*
X117206922Y-66901733D01*
X117203638Y-66958197D01*
X117199631Y-67000480D01*
X117194829Y-67031449D01*
X117189159Y-67053973D01*
X117182550Y-67070922D01*
X117174929Y-67085164D01*
X117170287Y-67092870D01*
X117135768Y-67145341D01*
X117101724Y-67181076D01*
X117059192Y-67203304D01*
X116999208Y-67215253D01*
X116912810Y-67220150D01*
X116814051Y-67221175D01*
X116572912Y-67221857D01*
X116572912Y-67639831D01*
X116572912Y-68057806D01*
X116079916Y-68057806D01*
X115586920Y-68057806D01*
X115586920Y-67993502D01*
X115672658Y-67993502D01*
X116101350Y-67993502D01*
X116530042Y-67993502D01*
X116530042Y-67629114D01*
X116530042Y-67264726D01*
X116101350Y-67264726D01*
X115672658Y-67264726D01*
X115672658Y-67629114D01*
X115672658Y-67993502D01*
X115586920Y-67993502D01*
X115586920Y-67650549D01*
X115586920Y-67629114D01*
X115586920Y-67243291D01*
X115418435Y-67243291D01*
X115321160Y-67245116D01*
X115225823Y-67249910D01*
X115152515Y-67256651D01*
X115150502Y-67256922D01*
X115051055Y-67270553D01*
X115051055Y-67664179D01*
X115051055Y-68057806D01*
X114547342Y-68057806D01*
X114043629Y-68057806D01*
X114043629Y-67649868D01*
X114043629Y-67627328D01*
X114043629Y-67264726D01*
X114129367Y-67264726D01*
X114129367Y-67627328D01*
X114130258Y-67770398D01*
X114133137Y-67874964D01*
X114138315Y-67945360D01*
X114146103Y-67985918D01*
X114156161Y-68000741D01*
X114185243Y-68004240D01*
X114249966Y-68007450D01*
X114343099Y-68010163D01*
X114457415Y-68012165D01*
X114584853Y-68013244D01*
X114986751Y-68014937D01*
X114986751Y-67639831D01*
X114986751Y-67264726D01*
X114558059Y-67264726D01*
X114129367Y-67264726D01*
X114043629Y-67264726D01*
X114043629Y-67241931D01*
X113791772Y-67247970D01*
X113539916Y-67254008D01*
X113534084Y-67655907D01*
X113528253Y-68057806D01*
X113014295Y-68057806D01*
X112500338Y-68057806D01*
X112500338Y-67993502D01*
X112586076Y-67993502D01*
X113014768Y-67993502D01*
X113443460Y-67993502D01*
X113443460Y-67629114D01*
X113443460Y-67264726D01*
X113014768Y-67264726D01*
X112586076Y-67264726D01*
X112586076Y-67629114D01*
X112586076Y-67993502D01*
X112500338Y-67993502D01*
X112500338Y-67664179D01*
X112500338Y-67629114D01*
X112500338Y-67270553D01*
X112400890Y-67256922D01*
X112326937Y-67249898D01*
X112231742Y-67244977D01*
X112143675Y-67243291D01*
X111985907Y-67243291D01*
X111985907Y-67639831D01*
X111985907Y-68036371D01*
X111471477Y-68036371D01*
X110957047Y-68036371D01*
X110957047Y-67950633D01*
X111042785Y-67950633D01*
X111482194Y-67950633D01*
X111921604Y-67950633D01*
X111921604Y-67607679D01*
X111921604Y-67264726D01*
X111482194Y-67264726D01*
X111042785Y-67264726D01*
X111042785Y-67607679D01*
X111042785Y-67950633D01*
X110957047Y-67950633D01*
X110957047Y-67650549D01*
X110957047Y-67607679D01*
X110957047Y-67264726D01*
X110710549Y-67264726D01*
X110464051Y-67264726D01*
X110464051Y-67661266D01*
X110464051Y-68057806D01*
X109952547Y-68057806D01*
X109441042Y-68057806D01*
X109441046Y-67993502D01*
X109520928Y-67993502D01*
X109949620Y-67993502D01*
X110378312Y-67993502D01*
X110378312Y-67629114D01*
X110378312Y-67264726D01*
X109949620Y-67264726D01*
X109520928Y-67264726D01*
X109520928Y-67629114D01*
X109520928Y-67993502D01*
X109441046Y-67993502D01*
X109441070Y-67655907D01*
X109441072Y-67629114D01*
X109441097Y-67254008D01*
X109347046Y-67246859D01*
X109279392Y-67245213D01*
X109187431Y-67247456D01*
X109089500Y-67253093D01*
X109076161Y-67254142D01*
X108899325Y-67268574D01*
X108899325Y-67663190D01*
X108899325Y-68057806D01*
X108395612Y-68057806D01*
X107891899Y-68057806D01*
X107891899Y-67972067D01*
X107977637Y-67972067D01*
X108406329Y-67972067D01*
X108835021Y-67972067D01*
X108835021Y-67618397D01*
X108835021Y-67264726D01*
X108406329Y-67264726D01*
X107977637Y-67264726D01*
X107977637Y-67618397D01*
X107977637Y-67972067D01*
X107891899Y-67972067D01*
X107891899Y-67650549D01*
X107891899Y-67618397D01*
X107891899Y-67243291D01*
X107613249Y-67243291D01*
X107334599Y-67243291D01*
X107334599Y-67629114D01*
X107334599Y-68014937D01*
X106908587Y-68014937D01*
X106773205Y-68015600D01*
X106648567Y-68017446D01*
X106542529Y-68020262D01*
X106462949Y-68023834D01*
X106417684Y-68027949D01*
X106415591Y-68028333D01*
X106348608Y-68041730D01*
X106348608Y-67950633D01*
X106391477Y-67950633D01*
X106830886Y-67950633D01*
X107270296Y-67950633D01*
X107270296Y-67607679D01*
X107270296Y-67264726D01*
X106830886Y-67264726D01*
X106391477Y-67264726D01*
X106391477Y-67607679D01*
X106391477Y-67950633D01*
X106348608Y-67950633D01*
X106348608Y-67653228D01*
X106348608Y-67607679D01*
X106348608Y-67264726D01*
X106087443Y-67264726D01*
X105937817Y-67260986D01*
X105823619Y-67248160D01*
X105737929Y-67223836D01*
X105673830Y-67185604D01*
X105624403Y-67131053D01*
X105602343Y-67095687D01*
X105588819Y-67070031D01*
X105578185Y-67043248D01*
X105570093Y-67010108D01*
X105564197Y-66965380D01*
X105560150Y-66903832D01*
X105557606Y-66820234D01*
X105556219Y-66709354D01*
X105555641Y-66565961D01*
X105555528Y-66388898D01*
X105555528Y-65765405D01*
X105614473Y-65735385D01*
X105668637Y-65712458D01*
X105743858Y-65686095D01*
X105793692Y-65670797D01*
X105910485Y-65617883D01*
X106007700Y-65536285D01*
X106079741Y-65434181D01*
X106121011Y-65319749D01*
X106125914Y-65201169D01*
X106123972Y-65188100D01*
X106089826Y-65079261D01*
X106030233Y-64977786D01*
X105955198Y-64900081D01*
X105942974Y-64891317D01*
X105876193Y-64853083D01*
X105806530Y-64823747D01*
X105744940Y-64806639D01*
X105702379Y-64805090D01*
X105689973Y-64814384D01*
X105671414Y-64827305D01*
X105626387Y-64817024D01*
X105618796Y-64814229D01*
X105555528Y-64790348D01*
X105555528Y-64751399D01*
X105684135Y-64751399D01*
X105767187Y-64764679D01*
X105832792Y-64784611D01*
X105910265Y-64821171D01*
X105954459Y-64847798D01*
X106059450Y-64941610D01*
X106130900Y-65055446D01*
X106167490Y-65181801D01*
X106167897Y-65313169D01*
X106130802Y-65442043D01*
X106075474Y-65535355D01*
X106025586Y-65585270D01*
X105953388Y-65638560D01*
X105871822Y-65687592D01*
X105793831Y-65724736D01*
X105732357Y-65742358D01*
X105723581Y-65742869D01*
X105712343Y-65744843D01*
X105703465Y-65753767D01*
X105696671Y-65774146D01*
X105691683Y-65810484D01*
X105688224Y-65867285D01*
X105686017Y-65949053D01*
X105684784Y-66060292D01*
X105684249Y-66205506D01*
X105684135Y-66384002D01*
X105684135Y-67025134D01*
X105750084Y-67080626D01*
X105816032Y-67136118D01*
X111385739Y-67136118D01*
X116955445Y-67136118D01*
X117021394Y-67080626D01*
X117087342Y-67025134D01*
X117087342Y-65284889D01*
X117087405Y-64963756D01*
X117087453Y-64682762D01*
X117087270Y-64439178D01*
X117086644Y-64230275D01*
X117085362Y-64053322D01*
X117083208Y-63905592D01*
X117079970Y-63784353D01*
X117075434Y-63686878D01*
X117069386Y-63610436D01*
X117061613Y-63552298D01*
X117051900Y-63509735D01*
X117040035Y-63480018D01*
X117025802Y-63460416D01*
X117008990Y-63448200D01*
X116989383Y-63440642D01*
X116966769Y-63435012D01*
X116942026Y-63428885D01*
X116912373Y-63426562D01*
X116842058Y-63424361D01*
X116733288Y-63422283D01*
X116588272Y-63420328D01*
X116409216Y-63418496D01*
X116198329Y-63416787D01*
X115957816Y-63415200D01*
X115689887Y-63413736D01*
X115396747Y-63412395D01*
X115080605Y-63411177D01*
X114743668Y-63410081D01*
X114388143Y-63409109D01*
X114016238Y-63408259D01*
X113630160Y-63407532D01*
X113232116Y-63406928D01*
X112824314Y-63406446D01*
X112408962Y-63406087D01*
X111988266Y-63405852D01*
X111564434Y-63405739D01*
X111139674Y-63405748D01*
X110716192Y-63405881D01*
X110296197Y-63406136D01*
X109881895Y-63406514D01*
X109475494Y-63407015D01*
X109079202Y-63407639D01*
X108695225Y-63408386D01*
X108325772Y-63409255D01*
X107973049Y-63410247D01*
X107639264Y-63411362D01*
X107326624Y-63412600D01*
X107037338Y-63413960D01*
X106773611Y-63415443D01*
X106537652Y-63417050D01*
X106331668Y-63418778D01*
X106157866Y-63420630D01*
X106018454Y-63422605D01*
X105915639Y-63424702D01*
X105851628Y-63426922D01*
X105829451Y-63428885D01*
X105789148Y-63440960D01*
X105757084Y-63455444D01*
X105732317Y-63476998D01*
X105713905Y-63510286D01*
X105700906Y-63559970D01*
X105692378Y-63630711D01*
X105687379Y-63727172D01*
X105684967Y-63854016D01*
X105684199Y-64015904D01*
X105684135Y-64148021D01*
X105684135Y-64751399D01*
X105555528Y-64751399D01*
X105555528Y-64171325D01*
X105555570Y-64148021D01*
X105555881Y-63976858D01*
X105557440Y-63820340D01*
X105560959Y-63696851D01*
X105567187Y-63601472D01*
X105576877Y-63529286D01*
X105590780Y-63475373D01*
X105609648Y-63434815D01*
X105634232Y-63402693D01*
X105665284Y-63374089D01*
X105679028Y-63363046D01*
X105704645Y-63346196D01*
X105736531Y-63334476D01*
X105782425Y-63326981D01*
X105850072Y-63322804D01*
X105947212Y-63321042D01*
X106040697Y-63320759D01*
X106348608Y-63320759D01*
X106348608Y-63110396D01*
X106394925Y-63110396D01*
X106396148Y-63196525D01*
X106398520Y-63253214D01*
X106400983Y-63271745D01*
X106414797Y-63281647D01*
X106450594Y-63289048D01*
X106512854Y-63294229D01*
X106606056Y-63297470D01*
X106734680Y-63299053D01*
X106840931Y-63299325D01*
X107270296Y-63299325D01*
X107270296Y-62902341D01*
X107270296Y-62505357D01*
X106836245Y-62511160D01*
X106402194Y-62516962D01*
X106396297Y-62880563D01*
X106394944Y-63002513D01*
X106394925Y-63110396D01*
X106348608Y-63110396D01*
X106348608Y-62892067D01*
X106348608Y-62463376D01*
X106841604Y-62463376D01*
X107334599Y-62463376D01*
X107334599Y-62881350D01*
G37*
G36*
X113222304Y-63654388D02*
G01*
X113617089Y-63654590D01*
X113999989Y-63654899D01*
X114368811Y-63655317D01*
X114721368Y-63655844D01*
X115055467Y-63656482D01*
X115368920Y-63657234D01*
X115659536Y-63658100D01*
X115925124Y-63659082D01*
X116163495Y-63660182D01*
X116372459Y-63661402D01*
X116549824Y-63662742D01*
X116693401Y-63664205D01*
X116801000Y-63665792D01*
X116870430Y-63667504D01*
X116899502Y-63669344D01*
X116899992Y-63669486D01*
X116907015Y-63674177D01*
X116913100Y-63684403D01*
X116918314Y-63703041D01*
X116922724Y-63732971D01*
X116926397Y-63777071D01*
X116929400Y-63838219D01*
X116931799Y-63919293D01*
X116933661Y-64023173D01*
X116935053Y-64152736D01*
X116936041Y-64310861D01*
X116936694Y-64500426D01*
X116937076Y-64724310D01*
X116937256Y-64985391D01*
X116937300Y-65277066D01*
X116937133Y-65594637D01*
X116936609Y-65871541D01*
X116935692Y-66109980D01*
X116934349Y-66312153D01*
X116932543Y-66480262D01*
X116930241Y-66616509D01*
X116927406Y-66723094D01*
X116924005Y-66802217D01*
X116920001Y-66856081D01*
X116915360Y-66886886D01*
X116911578Y-66896051D01*
X116899623Y-66898864D01*
X116868767Y-66901475D01*
X116817779Y-66903891D01*
X116745426Y-66906116D01*
X116650477Y-66908155D01*
X116531700Y-66910015D01*
X116387862Y-66911700D01*
X116217733Y-66913215D01*
X116020079Y-66914567D01*
X115793669Y-66915760D01*
X115537272Y-66916801D01*
X115249655Y-66917693D01*
X114929587Y-66918443D01*
X114575835Y-66919056D01*
X114187167Y-66919537D01*
X113762352Y-66919892D01*
X113300158Y-66920127D01*
X112799352Y-66920245D01*
X112258704Y-66920254D01*
X111676981Y-66920157D01*
X111397528Y-66920080D01*
X110915154Y-66919890D01*
X110443913Y-66919622D01*
X109985609Y-66919280D01*
X109542047Y-66918870D01*
X109115033Y-66918394D01*
X108706372Y-66917857D01*
X108317869Y-66917263D01*
X107951328Y-66916616D01*
X107608556Y-66915920D01*
X107291356Y-66915179D01*
X107001534Y-66914398D01*
X106740896Y-66913580D01*
X106511245Y-66912730D01*
X106314388Y-66911851D01*
X106152129Y-66910948D01*
X106026273Y-66910025D01*
X105938626Y-66909086D01*
X105890992Y-66908134D01*
X105882405Y-66907576D01*
X105873327Y-66893246D01*
X105866373Y-66855845D01*
X105861335Y-66791402D01*
X105858001Y-66695943D01*
X105856164Y-66565495D01*
X105855612Y-66399869D01*
X105855612Y-66165316D01*
X106118794Y-66165316D01*
X106122933Y-66299633D01*
X106162469Y-66432306D01*
X106226943Y-66540407D01*
X106324859Y-66637719D01*
X106448118Y-66713314D01*
X106582321Y-66759488D01*
X106655276Y-66769536D01*
X106698688Y-66765820D01*
X106763560Y-66753892D01*
X106794601Y-66746679D01*
X106936828Y-66690143D01*
X107056036Y-66598718D01*
X107148708Y-66475695D01*
X107196476Y-66370946D01*
X107223402Y-66236358D01*
X107212259Y-66102758D01*
X107167541Y-65976239D01*
X107093743Y-65862890D01*
X106995362Y-65768801D01*
X106950669Y-65742869D01*
X107227426Y-65742869D01*
X107302447Y-65742869D01*
X107377469Y-65742869D01*
X107377469Y-65464219D01*
X107377469Y-65185570D01*
X107666836Y-65185570D01*
X107956203Y-65185570D01*
X107956203Y-65110549D01*
X107956203Y-65035527D01*
X107666836Y-65035527D01*
X107377469Y-65035527D01*
X107377469Y-64842616D01*
X108234853Y-64842616D01*
X108234853Y-65292743D01*
X108234853Y-65742869D01*
X108309874Y-65742869D01*
X108384895Y-65742869D01*
X108813587Y-65742869D01*
X108888608Y-65742869D01*
X108963629Y-65742869D01*
X108963629Y-65292743D01*
X108963629Y-64891728D01*
X109131124Y-64891728D01*
X109140593Y-64928744D01*
X109176610Y-64952403D01*
X109183334Y-64953657D01*
X109201162Y-64957635D01*
X109214185Y-64967865D01*
X109223420Y-64990554D01*
X109229879Y-65031910D01*
X109234579Y-65098141D01*
X109238534Y-65195453D01*
X109242279Y-65314177D01*
X109246940Y-65434515D01*
X109252967Y-65540811D01*
X109259765Y-65625230D01*
X109266739Y-65679935D01*
X109271265Y-65696143D01*
X109317836Y-65734533D01*
X109388042Y-65757634D01*
X109464128Y-65761317D01*
X109508458Y-65751293D01*
X109515591Y-65742869D01*
X109606667Y-65742869D01*
X109992490Y-65742869D01*
X110378312Y-65742869D01*
X110378312Y-65679170D01*
X110378312Y-65615471D01*
X110089506Y-65609508D01*
X109800700Y-65603544D01*
X110078789Y-65271409D01*
X110086440Y-65262089D01*
X110488230Y-65262089D01*
X110494085Y-65405588D01*
X110533899Y-65531776D01*
X110606137Y-65636191D01*
X110709263Y-65714372D01*
X110731097Y-65725366D01*
X110835222Y-65754250D01*
X110953791Y-65756229D01*
X111068811Y-65732424D01*
X111139368Y-65699921D01*
X111200326Y-65648224D01*
X111251102Y-65582387D01*
X111256952Y-65571743D01*
X111298310Y-65490675D01*
X111233702Y-65477753D01*
X111191045Y-65474649D01*
X111153595Y-65489694D01*
X111107898Y-65529576D01*
X111087823Y-65550264D01*
X111034714Y-65601232D01*
X110990125Y-65626729D01*
X110936344Y-65635192D01*
X110908424Y-65635696D01*
X110826366Y-65626530D01*
X110761761Y-65594013D01*
X110744972Y-65580732D01*
X110695007Y-65520150D01*
X110655204Y-65439830D01*
X110636082Y-65361810D01*
X110635647Y-65351688D01*
X110655823Y-65346179D01*
X110711581Y-65341483D01*
X110795636Y-65337954D01*
X110900703Y-65335943D01*
X110967764Y-65335612D01*
X111300000Y-65335612D01*
X111299881Y-65265949D01*
X111282163Y-65137745D01*
X111233231Y-65022524D01*
X111158734Y-64927743D01*
X111064322Y-64860861D01*
X111006630Y-64842616D01*
X111471477Y-64842616D01*
X111471477Y-65292743D01*
X111471477Y-65742869D01*
X111546498Y-65742869D01*
X111621519Y-65742869D01*
X111621639Y-65469578D01*
X111624543Y-65308278D01*
X111634523Y-65184539D01*
X111653721Y-65093336D01*
X111684277Y-65029646D01*
X111728333Y-64988446D01*
X111788028Y-64964711D01*
X111840606Y-64955759D01*
X111913310Y-64954587D01*
X111966366Y-64974179D01*
X111986160Y-64988506D01*
X112005825Y-65005803D01*
X112020092Y-65025516D01*
X112029993Y-65054475D01*
X112036556Y-65099513D01*
X112040813Y-65167461D01*
X112043793Y-65265151D01*
X112046295Y-65387258D01*
X112053096Y-65742869D01*
X112126675Y-65742869D01*
X112200253Y-65742869D01*
X112436034Y-65742869D01*
X112823215Y-65742869D01*
X113210396Y-65742869D01*
X113203679Y-65673207D01*
X113196962Y-65603544D01*
X112891519Y-65597597D01*
X112586076Y-65591650D01*
X112586076Y-65527875D01*
X113320682Y-65527875D01*
X113321399Y-65533675D01*
X113353324Y-65628840D01*
X113416462Y-65700469D01*
X113504509Y-65745767D01*
X113611160Y-65761941D01*
X113730111Y-65746198D01*
X113740818Y-65742869D01*
X114300844Y-65742869D01*
X114375865Y-65742869D01*
X114427142Y-65738387D01*
X114447992Y-65720038D01*
X114450886Y-65696678D01*
X114453981Y-65665032D01*
X114470517Y-65669052D01*
X114488838Y-65684832D01*
X114581285Y-65741083D01*
X114688445Y-65761255D01*
X114799496Y-65743707D01*
X114821656Y-65735345D01*
X114919079Y-65672794D01*
X114994244Y-65580859D01*
X115045555Y-65467720D01*
X115071419Y-65341553D01*
X115070239Y-65210535D01*
X115040422Y-65082844D01*
X115006606Y-65017415D01*
X115351139Y-65017415D01*
X115368456Y-65083125D01*
X115412211Y-65136219D01*
X115470111Y-65163092D01*
X115483724Y-65164135D01*
X115532495Y-65149903D01*
X115580180Y-65117529D01*
X115622022Y-65054612D01*
X115623426Y-64987848D01*
X115586920Y-64928354D01*
X115525756Y-64891625D01*
X115460023Y-64888460D01*
X115401412Y-64914444D01*
X115361613Y-64965161D01*
X115351139Y-65017415D01*
X115006606Y-65017415D01*
X114980373Y-64966658D01*
X114973443Y-64957061D01*
X114894218Y-64883821D01*
X114794302Y-64840571D01*
X114685306Y-64829119D01*
X114578846Y-64851274D01*
X114514986Y-64885630D01*
X114450886Y-64931274D01*
X114450886Y-64715468D01*
X114450886Y-64659830D01*
X115522616Y-64659830D01*
X115540237Y-64695054D01*
X115560127Y-64707452D01*
X115602980Y-64728689D01*
X115657011Y-64762252D01*
X115661941Y-64765641D01*
X115706599Y-64793616D01*
X115724682Y-64801309D01*
X115715528Y-64810464D01*
X115726245Y-64821181D01*
X115736962Y-64810464D01*
X115730120Y-64803622D01*
X115734452Y-64805465D01*
X115736736Y-64805205D01*
X115747307Y-64817015D01*
X115748624Y-64826723D01*
X115757562Y-64864600D01*
X115775643Y-64913674D01*
X115793995Y-64963365D01*
X115801266Y-64995319D01*
X115814447Y-65006888D01*
X115822455Y-65003527D01*
X115834635Y-65006977D01*
X115830879Y-65023697D01*
X115824010Y-65075766D01*
X115852413Y-65103623D01*
X115915817Y-65107028D01*
X115923016Y-65106155D01*
X115977354Y-65097565D01*
X116009643Y-65089782D01*
X116012381Y-65088318D01*
X116013817Y-65064878D01*
X116008376Y-65014702D01*
X116005123Y-64994011D01*
X115990329Y-64938330D01*
X115972108Y-64919410D01*
X115967201Y-64921062D01*
X115953189Y-64919764D01*
X115958186Y-64898479D01*
X115957224Y-64852494D01*
X115933811Y-64788701D01*
X115894595Y-64720770D01*
X115846229Y-64662369D01*
X115840863Y-64657321D01*
X115789886Y-64618224D01*
X115724669Y-64577649D01*
X115659402Y-64543430D01*
X115608277Y-64523398D01*
X115594041Y-64521097D01*
X115567579Y-64539073D01*
X115551387Y-64579434D01*
X115552353Y-64621830D01*
X115556696Y-64631390D01*
X115559422Y-64646259D01*
X115547363Y-64641034D01*
X115526233Y-64643068D01*
X115522616Y-64659830D01*
X114450886Y-64659830D01*
X114450886Y-64499662D01*
X114375865Y-64499662D01*
X114300844Y-64499662D01*
X114300844Y-65121266D01*
X114300844Y-65742869D01*
X113740818Y-65742869D01*
X113771757Y-65733249D01*
X113834776Y-65705655D01*
X113885039Y-65675116D01*
X113891335Y-65669886D01*
X113930820Y-65640263D01*
X113951733Y-65645733D01*
X113961758Y-65683924D01*
X113975461Y-65717654D01*
X114012077Y-65734091D01*
X114048948Y-65738802D01*
X114100667Y-65741346D01*
X114118945Y-65731962D01*
X114113008Y-65702882D01*
X114107893Y-65689179D01*
X114099901Y-65647149D01*
X114093267Y-65572241D01*
X114088608Y-65474437D01*
X114086546Y-65363722D01*
X114086498Y-65344245D01*
X114084078Y-65195204D01*
X114078636Y-65121266D01*
X114075772Y-65082344D01*
X114060016Y-64999196D01*
X114035244Y-64939290D01*
X113999889Y-64896158D01*
X113973109Y-64875746D01*
X113887362Y-64840261D01*
X113780769Y-64825822D01*
X113666785Y-64831207D01*
X113558861Y-64855191D01*
X113470450Y-64896553D01*
X113436654Y-64924523D01*
X113393741Y-64978073D01*
X113363301Y-65031806D01*
X113349611Y-65075434D01*
X113356953Y-65098669D01*
X113363611Y-65100124D01*
X113405072Y-65105667D01*
X113434821Y-65112483D01*
X113470456Y-65111989D01*
X113496735Y-65081154D01*
X113507423Y-65057785D01*
X113540537Y-65000330D01*
X113587888Y-64966808D01*
X113659941Y-64951946D01*
X113721675Y-64949789D01*
X113816849Y-64963516D01*
X113887214Y-65001579D01*
X113926851Y-65059305D01*
X113932481Y-65116317D01*
X113927209Y-65143702D01*
X113913504Y-65162760D01*
X113883222Y-65177073D01*
X113828216Y-65190225D01*
X113740342Y-65205797D01*
X113722110Y-65208849D01*
X113624582Y-65227684D01*
X113535472Y-65249391D01*
X113468625Y-65270418D01*
X113449182Y-65278874D01*
X113372932Y-65341012D01*
X113328571Y-65427059D01*
X113320682Y-65527875D01*
X112586076Y-65527875D01*
X112586076Y-65045656D01*
X112586076Y-64499662D01*
X112511055Y-64499662D01*
X112436034Y-64499662D01*
X112436034Y-65121266D01*
X112436034Y-65742869D01*
X112200253Y-65742869D01*
X112200253Y-65399227D01*
X112198635Y-65242813D01*
X112192873Y-65122994D01*
X112192655Y-65121266D01*
X112181610Y-65033584D01*
X112163486Y-64968399D01*
X112137144Y-64921255D01*
X112101223Y-64885967D01*
X112084970Y-64874505D01*
X111996140Y-64837136D01*
X111894408Y-64826091D01*
X111793816Y-64840233D01*
X111708409Y-64878425D01*
X111674375Y-64907727D01*
X111632888Y-64943938D01*
X111608478Y-64941137D01*
X111600101Y-64899162D01*
X111600085Y-64896203D01*
X111593164Y-64857906D01*
X111563744Y-64843896D01*
X111535781Y-64842616D01*
X111471477Y-64842616D01*
X111006630Y-64842616D01*
X110970494Y-64831188D01*
X110838234Y-64830391D01*
X110719316Y-64866476D01*
X110620068Y-64935604D01*
X110546819Y-65033936D01*
X110517869Y-65105739D01*
X110488230Y-65262089D01*
X110086440Y-65262089D01*
X110183420Y-65143949D01*
X110265030Y-65039197D01*
X110321861Y-64959558D01*
X110352157Y-64907438D01*
X110356878Y-64890945D01*
X110355844Y-64873353D01*
X110348740Y-64860650D01*
X110329563Y-64852041D01*
X110292311Y-64846730D01*
X110230980Y-64843919D01*
X110139568Y-64842813D01*
X110012072Y-64842616D01*
X109992490Y-64842616D01*
X109628101Y-64842616D01*
X109628101Y-64908180D01*
X109628101Y-64973744D01*
X109885357Y-64967125D01*
X109984627Y-64965733D01*
X110066099Y-64966803D01*
X110121500Y-64970068D01*
X110142557Y-64975261D01*
X110142572Y-64975424D01*
X110129204Y-64995570D01*
X110092003Y-65042791D01*
X110035292Y-65111834D01*
X109963390Y-65197444D01*
X109880617Y-65294366D01*
X109874599Y-65301355D01*
X109777242Y-65415619D01*
X109705532Y-65503173D01*
X109656052Y-65568817D01*
X109625383Y-65617353D01*
X109610106Y-65653579D01*
X109606667Y-65677618D01*
X109606667Y-65742869D01*
X109515591Y-65742869D01*
X109534724Y-65720275D01*
X109541758Y-65677618D01*
X109542363Y-65673948D01*
X109538071Y-65629727D01*
X109518716Y-65617566D01*
X109493957Y-65621763D01*
X109453389Y-65628837D01*
X109423904Y-65623057D01*
X109403758Y-65599079D01*
X109391207Y-65551560D01*
X109384507Y-65475155D01*
X109381914Y-65364521D01*
X109381604Y-65277482D01*
X109381604Y-64960506D01*
X109461983Y-64953854D01*
X109515424Y-64945400D01*
X109538149Y-64926173D01*
X109542363Y-64894909D01*
X109537469Y-64861183D01*
X109514787Y-64846195D01*
X109462316Y-64842627D01*
X109456625Y-64842616D01*
X109370886Y-64842616D01*
X109370886Y-64703291D01*
X109368548Y-64632336D01*
X109362429Y-64582155D01*
X109354221Y-64563966D01*
X109325874Y-64575127D01*
X109289917Y-64597334D01*
X109259561Y-64628043D01*
X109245371Y-64673749D01*
X109242279Y-64736658D01*
X109240494Y-64799810D01*
X109231427Y-64831147D01*
X109209502Y-64841688D01*
X109188692Y-64842616D01*
X109147418Y-64857602D01*
X109131124Y-64891728D01*
X108963629Y-64891728D01*
X108963629Y-64842616D01*
X108888608Y-64842616D01*
X108813587Y-64842616D01*
X108813587Y-65292743D01*
X108813587Y-65742869D01*
X108384895Y-65742869D01*
X108385014Y-65469578D01*
X108386817Y-65357406D01*
X108389816Y-65292743D01*
X108391639Y-65253420D01*
X108398748Y-65169135D01*
X108407412Y-65116069D01*
X108407512Y-65115704D01*
X108447416Y-65034298D01*
X108510064Y-64987313D01*
X108591222Y-64977622D01*
X108607411Y-64980049D01*
X108657569Y-64985640D01*
X108681933Y-64971683D01*
X108694431Y-64936483D01*
X108699102Y-64885042D01*
X108676709Y-64853111D01*
X108620519Y-64833519D01*
X108593026Y-64828477D01*
X108538184Y-64824976D01*
X108495875Y-64841298D01*
X108448544Y-64882842D01*
X108406170Y-64923354D01*
X108377680Y-64947153D01*
X108372529Y-64949789D01*
X108365704Y-64931391D01*
X108363460Y-64896203D01*
X108356539Y-64857906D01*
X108327119Y-64843896D01*
X108299156Y-64842616D01*
X108234853Y-64842616D01*
X107377469Y-64842616D01*
X107377469Y-64649705D01*
X107709705Y-64649705D01*
X108041941Y-64649705D01*
X108041941Y-64585401D01*
X108813587Y-64585401D01*
X108815858Y-64640296D01*
X108829881Y-64664692D01*
X108866471Y-64670947D01*
X108888608Y-64671139D01*
X108936641Y-64668544D01*
X108957987Y-64652517D01*
X108963461Y-64610700D01*
X108963629Y-64585401D01*
X108961358Y-64530506D01*
X108947334Y-64506110D01*
X108910745Y-64499854D01*
X108888608Y-64499662D01*
X108840574Y-64502258D01*
X108819228Y-64518285D01*
X108813754Y-64560101D01*
X108813587Y-64585401D01*
X108041941Y-64585401D01*
X108041941Y-64574684D01*
X108041941Y-64499662D01*
X107634684Y-64499662D01*
X107227426Y-64499662D01*
X107227426Y-65121266D01*
X107227426Y-65742869D01*
X106950669Y-65742869D01*
X106876892Y-65700062D01*
X106742828Y-65662765D01*
X106670127Y-65657811D01*
X106524573Y-65677146D01*
X106396505Y-65730507D01*
X106288908Y-65811951D01*
X106204767Y-65915530D01*
X106147067Y-66035300D01*
X106118794Y-66165316D01*
X105855612Y-66165316D01*
X105855612Y-65902974D01*
X105960360Y-65865770D01*
X106076889Y-65803017D01*
X106183391Y-65703641D01*
X106273472Y-65573734D01*
X106280597Y-65560675D01*
X106307557Y-65505646D01*
X106324493Y-65454588D01*
X106333671Y-65394796D01*
X106337354Y-65313562D01*
X106337874Y-65239156D01*
X106336836Y-65137505D01*
X106335755Y-65121266D01*
X106332070Y-65065928D01*
X106321123Y-65011647D01*
X106301543Y-64961886D01*
X106274914Y-64911131D01*
X106179945Y-64776294D01*
X106064425Y-64674759D01*
X105948215Y-64615844D01*
X105844895Y-64579150D01*
X105847417Y-64333544D01*
X115652916Y-64333544D01*
X115667617Y-64364367D01*
X115700602Y-64371055D01*
X115769119Y-64385438D01*
X115853333Y-64423355D01*
X115939735Y-64476957D01*
X116014817Y-64538396D01*
X116045325Y-64571357D01*
X116123188Y-64679560D01*
X116171659Y-64780830D01*
X116197447Y-64891355D01*
X116203837Y-64953827D01*
X116210114Y-65030150D01*
X116218612Y-65073702D01*
X116234448Y-65094482D01*
X116262738Y-65102490D01*
X116280984Y-65104601D01*
X116347679Y-65110102D01*
X116386716Y-65103563D01*
X116404233Y-65078397D01*
X116407634Y-65078397D01*
X116406474Y-65065984D01*
X116405388Y-65076737D01*
X116404233Y-65078397D01*
X116318796Y-65078397D01*
X116229958Y-65078397D01*
X116229941Y-64965865D01*
X116212658Y-64846135D01*
X116165372Y-64719182D01*
X116094874Y-64599779D01*
X116023513Y-64516911D01*
X115953616Y-64460570D01*
X115871152Y-64409222D01*
X115789868Y-64370232D01*
X115723514Y-64350959D01*
X115711955Y-64350091D01*
X115674965Y-64335695D01*
X115665420Y-64322827D01*
X115655983Y-64315308D01*
X115652916Y-64333544D01*
X105847417Y-64333544D01*
X105848028Y-64274078D01*
X115676708Y-64274078D01*
X115683279Y-64272610D01*
X115707943Y-64236418D01*
X115710978Y-64231730D01*
X115736321Y-64187070D01*
X115736449Y-64186676D01*
X115798786Y-64186676D01*
X115828814Y-64202580D01*
X115849224Y-64210590D01*
X116002958Y-64289007D01*
X116138775Y-64401315D01*
X116251347Y-64540427D01*
X116335348Y-64699257D01*
X116385451Y-64870718D01*
X116394321Y-64935831D01*
X116406474Y-65065984D01*
X116410985Y-65021371D01*
X116411001Y-64957505D01*
X116388748Y-64792698D01*
X116326101Y-64629868D01*
X116225406Y-64474284D01*
X116164244Y-64403720D01*
X116089505Y-64334469D01*
X116004666Y-64271015D01*
X115920247Y-64219873D01*
X115846765Y-64187555D01*
X115802416Y-64179654D01*
X115798786Y-64186676D01*
X115736449Y-64186676D01*
X115745122Y-64160033D01*
X115744395Y-64158138D01*
X115725655Y-64160924D01*
X115702636Y-64193965D01*
X115684162Y-64242447D01*
X115676708Y-64274078D01*
X105848028Y-64274078D01*
X105849410Y-64139422D01*
X105852082Y-63983885D01*
X105852747Y-63964553D01*
X115801266Y-63964553D01*
X115818230Y-63978289D01*
X115849494Y-63973296D01*
X115880069Y-63967918D01*
X115881677Y-63975393D01*
X115891915Y-63989674D01*
X115930818Y-64011865D01*
X115986237Y-64036753D01*
X116046027Y-64059126D01*
X116098041Y-64073770D01*
X116117426Y-64076570D01*
X116135782Y-64084119D01*
X116133918Y-64088417D01*
X116141833Y-64106109D01*
X116174457Y-64135893D01*
X116219183Y-64168765D01*
X116263403Y-64195718D01*
X116294510Y-64207746D01*
X116299768Y-64206892D01*
X116311674Y-64213006D01*
X116310869Y-64224778D01*
X116320341Y-64247158D01*
X116331772Y-64247806D01*
X116353121Y-64252421D01*
X116353340Y-64258523D01*
X116359440Y-64288702D01*
X116383629Y-64333135D01*
X116416502Y-64378785D01*
X116448654Y-64412613D01*
X116470679Y-64421582D01*
X116470881Y-64421463D01*
X116483697Y-64420955D01*
X116479495Y-64430441D01*
X116476551Y-64462138D01*
X116488848Y-64504117D01*
X116509076Y-64539820D01*
X116529924Y-64552692D01*
X116532931Y-64551464D01*
X116541691Y-64557773D01*
X116536872Y-64577086D01*
X116532699Y-64602032D01*
X116551146Y-64596323D01*
X116569496Y-64590451D01*
X116564850Y-64602538D01*
X116558672Y-64639587D01*
X116564373Y-64682908D01*
X116578551Y-64716517D01*
X116592287Y-64717339D01*
X116597824Y-64727271D01*
X116601572Y-64772020D01*
X116603064Y-64843555D01*
X116602678Y-64896335D01*
X116601742Y-64990348D01*
X116603825Y-65049873D01*
X116610626Y-65083268D01*
X116623842Y-65098895D01*
X116645082Y-65105097D01*
X116697876Y-65109274D01*
X116722954Y-65107899D01*
X116770285Y-65102367D01*
X116781899Y-65101471D01*
X116797209Y-65084340D01*
X116805919Y-65032610D01*
X116808692Y-64942318D01*
X116808692Y-64941751D01*
X116805997Y-64824395D01*
X116798341Y-64737030D01*
X116786371Y-64683259D01*
X116770734Y-64666684D01*
X116760776Y-64674769D01*
X116748085Y-64687388D01*
X116753695Y-64662435D01*
X116754622Y-64618817D01*
X116742290Y-64554681D01*
X116721497Y-64486047D01*
X116697042Y-64428934D01*
X116675134Y-64400147D01*
X116662430Y-64399076D01*
X116669367Y-64413924D01*
X116675000Y-64431883D01*
X116661612Y-64426472D01*
X116645988Y-64400845D01*
X116648821Y-64391052D01*
X116648269Y-64361164D01*
X116629713Y-64318913D01*
X116602491Y-64279284D01*
X116575944Y-64257262D01*
X116565667Y-64257642D01*
X116555171Y-64256263D01*
X116559680Y-64246515D01*
X116554334Y-64218670D01*
X116524240Y-64174171D01*
X116478707Y-64122402D01*
X116427044Y-64072747D01*
X116378561Y-64034589D01*
X116342566Y-64017312D01*
X116333478Y-64018502D01*
X116316954Y-64024074D01*
X116321175Y-64017128D01*
X116315254Y-63996619D01*
X116282516Y-63965593D01*
X116234861Y-63931935D01*
X116184191Y-63903530D01*
X116142407Y-63888263D01*
X116127030Y-63888498D01*
X116109776Y-63886564D01*
X116114306Y-63874437D01*
X116113206Y-63858442D01*
X116083238Y-63861966D01*
X116051394Y-63865392D01*
X116047032Y-63857808D01*
X116034454Y-63844099D01*
X115995333Y-63825103D01*
X115944548Y-63806588D01*
X115896978Y-63794319D01*
X115878065Y-63792321D01*
X115861600Y-63810076D01*
X115838928Y-63852817D01*
X115817086Y-63904761D01*
X115803113Y-63950122D01*
X115801266Y-63964553D01*
X105852747Y-63964553D01*
X105856491Y-63855788D01*
X105862404Y-63759178D01*
X105869586Y-63698098D01*
X105876189Y-63677432D01*
X105899177Y-63675547D01*
X105962843Y-63673732D01*
X106064999Y-63671986D01*
X106203453Y-63670313D01*
X106376015Y-63668713D01*
X106580496Y-63667189D01*
X106814704Y-63665741D01*
X107076450Y-63664371D01*
X107363544Y-63663081D01*
X107673795Y-63661872D01*
X108005013Y-63660747D01*
X108355007Y-63659706D01*
X108721589Y-63658751D01*
X109102567Y-63657884D01*
X109495751Y-63657107D01*
X109898951Y-63656420D01*
X110309977Y-63655826D01*
X110726638Y-63655326D01*
X111146745Y-63654921D01*
X111568108Y-63654614D01*
X111988535Y-63654405D01*
X112405837Y-63654297D01*
X112817823Y-63654291D01*
X113222304Y-63654388D01*
G37*
D13*
%TO.C,D5*%
X117715000Y-77440000D02*
X117715000Y-79360000D01*
X117715000Y-79360000D02*
X120400000Y-79360000D01*
X120400000Y-77440000D02*
X117715000Y-77440000D01*
%TO.C,D7*%
X118400000Y-63360000D02*
X121085000Y-63360000D01*
X121085000Y-61440000D02*
X118400000Y-61440000D01*
X121085000Y-63360000D02*
X121085000Y-61440000D01*
%TO.C,SW1*%
X108370000Y-83570000D02*
X114830000Y-83570000D01*
X108370000Y-83600000D02*
X108370000Y-83570000D01*
X108370000Y-85500000D02*
X108370000Y-88100000D01*
X108370000Y-90030000D02*
X108370000Y-90000000D01*
X108370000Y-90030000D02*
X114830000Y-90030000D01*
X114830000Y-83570000D02*
X114830000Y-83600000D01*
X114830000Y-85500000D02*
X114830000Y-88100000D01*
X114830000Y-90030000D02*
X114830000Y-90000000D01*
%TO.C,J1*%
X104010000Y-95230000D02*
X104010000Y-93900000D01*
X105340000Y-95230000D02*
X104010000Y-95230000D01*
X106610000Y-92570000D02*
X119370000Y-92570000D01*
X106610000Y-95230000D02*
X106610000Y-92570000D01*
X106610000Y-95230000D02*
X119370000Y-95230000D01*
X119370000Y-95230000D02*
X119370000Y-92570000D01*
D11*
%TO.C,U1*%
X108500000Y-75545000D02*
X108500000Y-75750000D01*
X108500000Y-75545000D02*
X114000000Y-75545000D01*
X108500000Y-81055000D02*
X108500000Y-80850000D01*
X108500000Y-81055000D02*
X114000000Y-81055000D01*
X114000000Y-75545000D02*
X114000000Y-75750000D01*
X114000000Y-81055000D02*
X114000000Y-80850000D01*
D13*
X107950000Y-75800000D02*
X107710000Y-75470000D01*
X108190000Y-75470000D01*
X107950000Y-75800000D01*
G36*
X107950000Y-75800000D02*
G01*
X107710000Y-75470000D01*
X108190000Y-75470000D01*
X107950000Y-75800000D01*
G37*
%TO.C,D4*%
X109715000Y-69440000D02*
X109715000Y-71360000D01*
X109715000Y-71360000D02*
X112400000Y-71360000D01*
X112400000Y-69440000D02*
X109715000Y-69440000D01*
%TO.C,D6*%
X118400000Y-71360000D02*
X121085000Y-71360000D01*
X121085000Y-69440000D02*
X118400000Y-69440000D01*
X121085000Y-71360000D02*
X121085000Y-69440000D01*
%TO.C,D1*%
X102400000Y-63360000D02*
X105085000Y-63360000D01*
X105085000Y-61440000D02*
X102400000Y-61440000D01*
X105085000Y-63360000D02*
X105085000Y-61440000D01*
%TO.C,R2*%
X103827064Y-73765000D02*
X103372936Y-73765000D01*
X103827064Y-75235000D02*
X103372936Y-75235000D01*
%TO.C,R4*%
X119172936Y-65665000D02*
X119627064Y-65665000D01*
X119172936Y-67135000D02*
X119627064Y-67135000D01*
%TO.C,C1*%
X111611252Y-73065000D02*
X111088748Y-73065000D01*
X111611252Y-74535000D02*
X111088748Y-74535000D01*
%TO.C,D3*%
X102400000Y-79360000D02*
X105085000Y-79360000D01*
X105085000Y-77440000D02*
X102400000Y-77440000D01*
X105085000Y-79360000D02*
X105085000Y-77440000D01*
%TO.C,D2*%
X101715000Y-69440000D02*
X101715000Y-71360000D01*
X101715000Y-71360000D02*
X104400000Y-71360000D01*
X104400000Y-69440000D02*
X101715000Y-69440000D01*
%TO.C,R1*%
X103514564Y-65465000D02*
X103060436Y-65465000D01*
X103514564Y-66935000D02*
X103060436Y-66935000D01*
%TO.C,R3*%
X119627064Y-73765000D02*
X119172936Y-73765000D01*
X119627064Y-75235000D02*
X119172936Y-75235000D01*
%TD*%
G36*
X121243039Y-61419685D02*
G01*
X121288794Y-61472489D01*
X121300000Y-61524000D01*
X121300000Y-79576000D01*
X121280315Y-79643039D01*
X121227511Y-79688794D01*
X121176000Y-79700000D01*
X117624000Y-79700000D01*
X117556961Y-79680315D01*
X117511206Y-79627511D01*
X117500000Y-79576000D01*
X117500000Y-71700000D01*
X105400000Y-71700000D01*
X105400000Y-79476000D01*
X105380315Y-79543039D01*
X105327511Y-79588794D01*
X105276000Y-79600000D01*
X101524000Y-79600000D01*
X101456961Y-79580315D01*
X101411206Y-79527511D01*
X101400000Y-79476000D01*
X101400000Y-61525353D01*
X101419685Y-61458314D01*
X101472489Y-61412559D01*
X101525346Y-61401360D01*
X104960994Y-61438653D01*
X105027816Y-61459064D01*
X105072995Y-61512362D01*
X105083641Y-61564004D01*
X105000000Y-69200000D01*
X117600000Y-69200000D01*
X117600000Y-61524000D01*
X117619685Y-61456961D01*
X117672489Y-61411206D01*
X117724000Y-61400000D01*
X121176000Y-61400000D01*
X121243039Y-61419685D01*
G37*
M02*
