%TF.GenerationSoftware,KiCad,Pcbnew,8.0.6*%
%TF.CreationDate,2024-11-07T13:30:53-03:00*%
%TF.ProjectId,dice-keychain,64696365-2d6b-4657-9963-6861696e2e6b,rev?*%
%TF.SameCoordinates,Original*%
%TF.FileFunction,Copper,L2,Bot*%
%TF.FilePolarity,Positive*%
%FSLAX46Y46*%
G04 Gerber Fmt 4.6, Leading zero omitted, Abs format (unit mm)*
G04 Created by KiCad (PCBNEW 8.0.6) date 2024-11-07 13:30:53*
%MOMM*%
%LPD*%
G01*
G04 APERTURE LIST*
%TA.AperFunction,ComponentPad*%
%ADD10R,1.700000X1.700000*%
%TD*%
%TA.AperFunction,ComponentPad*%
%ADD11O,1.700000X1.700000*%
%TD*%
%TA.AperFunction,SMDPad,CuDef*%
%ADD12R,5.000000X5.000000*%
%TD*%
%TA.AperFunction,SMDPad,CuDef*%
%ADD13R,4.000000X4.000000*%
%TD*%
%TA.AperFunction,ViaPad*%
%ADD14C,0.600000*%
%TD*%
%TA.AperFunction,Conductor*%
%ADD15C,0.200000*%
%TD*%
G04 APERTURE END LIST*
D10*
%TO.P,J1,1,Pin_1*%
%TO.N,VCC*%
X105340000Y-93900000D03*
D11*
%TO.P,J1,2,Pin_2*%
%TO.N,GND*%
X107880000Y-93900000D03*
%TO.P,J1,3,Pin_3*%
%TO.N,D10_Reset*%
X110420000Y-93900000D03*
%TO.P,J1,4,Pin_4*%
%TO.N,D11_Mosi*%
X112960000Y-93900000D03*
%TO.P,J1,5,Pin_5*%
%TO.N,D12_Miso*%
X115500000Y-93900000D03*
%TO.P,J1,6,Pin_6*%
%TO.N,D13_Sck*%
X118040000Y-93900000D03*
%TD*%
D12*
%TO.P,BT1,1,+*%
%TO.N,Net-(BT1-+)*%
X111300000Y-63950000D03*
X111300000Y-89850000D03*
D13*
%TO.P,BT1,2,-*%
%TO.N,GND*%
X111300000Y-76900000D03*
%TD*%
D14*
%TO.N,Net-(BT1-+)*%
X109900000Y-88000000D03*
X113100000Y-88000000D03*
%TO.N,GND*%
X110400000Y-72300000D03*
X107600000Y-81600000D03*
X106800000Y-92600000D03*
X103700000Y-92800000D03*
%TO.N,VCC*%
X107600000Y-87800000D03*
%TO.N,Net-(D3-K)*%
X106500000Y-74100000D03*
X117400000Y-70400000D03*
X113500000Y-70400000D03*
%TO.N,D13_Sck*%
X119000000Y-80300000D03*
X116395000Y-76695000D03*
%TO.N,D11_Mosi*%
X110600000Y-80200000D03*
X113400000Y-80200000D03*
%TO.N,LED1*%
X107900000Y-75200000D03*
X104200000Y-67400000D03*
%TD*%
D15*
%TO.N,VCC*%
X105340000Y-90060000D02*
X105340000Y-93900000D01*
X107600000Y-87800000D02*
X105340000Y-90060000D01*
%TO.N,Net-(D3-K)*%
X106600000Y-74000000D02*
X109900000Y-74000000D01*
X109900000Y-74000000D02*
X113500000Y-70400000D01*
X106500000Y-74100000D02*
X106600000Y-74000000D01*
X117400000Y-70400000D02*
X113500000Y-70400000D01*
%TO.N,D13_Sck*%
X116395000Y-76695000D02*
X119000000Y-79300000D01*
X119000000Y-79300000D02*
X119000000Y-80300000D01*
%TO.N,D11_Mosi*%
X113400000Y-80200000D02*
X110600000Y-80200000D01*
%TO.N,LED1*%
X105600000Y-75200000D02*
X107900000Y-75200000D01*
X104200000Y-67400000D02*
X104200000Y-73800000D01*
X104200000Y-73800000D02*
X105600000Y-75200000D01*
%TD*%
%TA.AperFunction,Conductor*%
%TO.N,GND*%
G36*
X108592274Y-60737166D02*
G01*
X108659220Y-60757158D01*
X108704732Y-60810171D01*
X108714359Y-60879375D01*
X108685042Y-60942797D01*
X108635037Y-60977347D01*
X108557669Y-61006203D01*
X108557664Y-61006206D01*
X108442455Y-61092452D01*
X108442452Y-61092455D01*
X108356206Y-61207664D01*
X108356202Y-61207671D01*
X108305908Y-61342517D01*
X108299501Y-61402116D01*
X108299501Y-61402123D01*
X108299500Y-61402135D01*
X108299500Y-66497870D01*
X108299501Y-66497876D01*
X108305908Y-66557483D01*
X108356202Y-66692328D01*
X108356206Y-66692335D01*
X108442452Y-66807544D01*
X108442455Y-66807547D01*
X108557664Y-66893793D01*
X108557671Y-66893797D01*
X108692517Y-66944091D01*
X108692516Y-66944091D01*
X108699444Y-66944835D01*
X108752127Y-66950500D01*
X113847872Y-66950499D01*
X113907483Y-66944091D01*
X114042331Y-66893796D01*
X114157546Y-66807546D01*
X114243796Y-66692331D01*
X114294091Y-66557483D01*
X114300500Y-66497873D01*
X114300499Y-61402128D01*
X114294091Y-61342517D01*
X114243796Y-61207669D01*
X114243795Y-61207668D01*
X114243793Y-61207664D01*
X114157547Y-61092455D01*
X114157544Y-61092452D01*
X114042335Y-61006206D01*
X114042329Y-61006203D01*
X114032407Y-61002502D01*
X113976475Y-60960629D01*
X113952060Y-60895164D01*
X113966913Y-60826891D01*
X114016320Y-60777487D01*
X114076309Y-60762322D01*
X121776071Y-60797642D01*
X121843017Y-60817634D01*
X121888529Y-60870647D01*
X121899500Y-60921641D01*
X121899500Y-90192565D01*
X121892288Y-90234236D01*
X121722909Y-90708943D01*
X121709295Y-90736055D01*
X119615282Y-93877074D01*
X119561717Y-93921935D01*
X119492401Y-93930715D01*
X119429342Y-93900626D01*
X119392561Y-93841222D01*
X119388581Y-93819106D01*
X119375063Y-93664592D01*
X119313903Y-93436337D01*
X119214035Y-93222171D01*
X119208425Y-93214158D01*
X119078494Y-93028597D01*
X118911402Y-92861506D01*
X118911395Y-92861501D01*
X118717834Y-92725967D01*
X118717830Y-92725965D01*
X118717828Y-92725964D01*
X118503663Y-92626097D01*
X118503659Y-92626096D01*
X118503655Y-92626094D01*
X118275413Y-92564938D01*
X118275403Y-92564936D01*
X118040001Y-92544341D01*
X118039999Y-92544341D01*
X117804596Y-92564936D01*
X117804586Y-92564938D01*
X117576344Y-92626094D01*
X117576335Y-92626098D01*
X117362171Y-92725964D01*
X117362169Y-92725965D01*
X117168597Y-92861505D01*
X117001505Y-93028597D01*
X116871575Y-93214158D01*
X116816998Y-93257783D01*
X116747500Y-93264977D01*
X116685145Y-93233454D01*
X116668425Y-93214158D01*
X116538494Y-93028597D01*
X116371402Y-92861506D01*
X116371395Y-92861501D01*
X116177834Y-92725967D01*
X116177830Y-92725965D01*
X116177828Y-92725964D01*
X115963663Y-92626097D01*
X115963659Y-92626096D01*
X115963655Y-92626094D01*
X115735413Y-92564938D01*
X115735403Y-92564936D01*
X115500001Y-92544341D01*
X115499999Y-92544341D01*
X115264596Y-92564936D01*
X115264586Y-92564938D01*
X115036344Y-92626094D01*
X115036335Y-92626098D01*
X114822171Y-92725964D01*
X114822169Y-92725965D01*
X114628597Y-92861505D01*
X114461505Y-93028597D01*
X114331575Y-93214158D01*
X114276998Y-93257783D01*
X114207500Y-93264977D01*
X114145145Y-93233454D01*
X114128425Y-93214158D01*
X113998494Y-93028597D01*
X113975821Y-93005924D01*
X113942336Y-92944601D01*
X113947320Y-92874909D01*
X113989192Y-92818976D01*
X114020164Y-92802063D01*
X114042331Y-92793796D01*
X114157546Y-92707546D01*
X114243796Y-92592331D01*
X114294091Y-92457483D01*
X114300500Y-92397873D01*
X114300499Y-87302128D01*
X114294091Y-87242517D01*
X114262335Y-87157376D01*
X114243797Y-87107671D01*
X114243793Y-87107664D01*
X114157547Y-86992455D01*
X114157544Y-86992452D01*
X114042335Y-86906206D01*
X114042328Y-86906202D01*
X113907482Y-86855908D01*
X113907483Y-86855908D01*
X113847883Y-86849501D01*
X113847881Y-86849500D01*
X113847873Y-86849500D01*
X113847864Y-86849500D01*
X108752129Y-86849500D01*
X108752123Y-86849501D01*
X108692516Y-86855908D01*
X108557671Y-86906202D01*
X108557664Y-86906206D01*
X108442455Y-86992452D01*
X108442452Y-86992455D01*
X108356206Y-87107664D01*
X108356203Y-87107669D01*
X108337664Y-87157376D01*
X108295792Y-87213309D01*
X108230328Y-87237726D01*
X108162055Y-87222874D01*
X108133801Y-87201723D01*
X108102262Y-87170184D01*
X107949523Y-87074211D01*
X107779254Y-87014631D01*
X107779249Y-87014630D01*
X107600004Y-86994435D01*
X107599996Y-86994435D01*
X107420750Y-87014630D01*
X107420745Y-87014631D01*
X107250476Y-87074211D01*
X107097737Y-87170184D01*
X106970184Y-87297737D01*
X106874210Y-87450478D01*
X106814630Y-87620750D01*
X106804837Y-87707667D01*
X106777770Y-87772081D01*
X106769298Y-87781464D01*
X104971286Y-89579478D01*
X104859481Y-89691282D01*
X104859479Y-89691285D01*
X104836538Y-89731021D01*
X104813596Y-89770758D01*
X104780423Y-89828215D01*
X104739499Y-89980943D01*
X104739499Y-89980945D01*
X104739499Y-90149046D01*
X104739500Y-90149059D01*
X104739500Y-92425500D01*
X104719815Y-92492539D01*
X104667011Y-92538294D01*
X104615501Y-92549500D01*
X104442130Y-92549500D01*
X104442123Y-92549501D01*
X104382516Y-92555908D01*
X104247671Y-92606202D01*
X104247664Y-92606206D01*
X104132455Y-92692452D01*
X104132452Y-92692455D01*
X104046206Y-92807664D01*
X104046202Y-92807671D01*
X103995908Y-92942517D01*
X103989501Y-93002116D01*
X103989500Y-93002135D01*
X103989500Y-94231135D01*
X103969815Y-94298174D01*
X103917011Y-94343929D01*
X103847853Y-94353873D01*
X103784297Y-94324848D01*
X103774415Y-94315275D01*
X103729955Y-94267145D01*
X103715371Y-94247890D01*
X103111828Y-93264977D01*
X101392652Y-90465177D01*
X101381228Y-90441092D01*
X101252325Y-90071009D01*
X101250137Y-90064080D01*
X101097307Y-89525521D01*
X101092598Y-89491645D01*
X101095442Y-78947844D01*
X108800000Y-78947844D01*
X108806401Y-79007372D01*
X108806403Y-79007379D01*
X108856645Y-79142086D01*
X108856649Y-79142093D01*
X108942809Y-79257187D01*
X108942812Y-79257190D01*
X109057906Y-79343350D01*
X109057913Y-79343354D01*
X109192620Y-79393596D01*
X109192627Y-79393598D01*
X109252155Y-79399999D01*
X109252172Y-79400000D01*
X109968560Y-79400000D01*
X110035599Y-79419685D01*
X110081354Y-79472489D01*
X110091298Y-79541647D01*
X110062273Y-79605203D01*
X110056241Y-79611681D01*
X109970184Y-79697737D01*
X109874211Y-79850476D01*
X109814631Y-80020745D01*
X109814630Y-80020750D01*
X109794435Y-80199996D01*
X109794435Y-80200003D01*
X109814630Y-80379249D01*
X109814631Y-80379254D01*
X109874211Y-80549523D01*
X109937045Y-80649522D01*
X109970184Y-80702262D01*
X110097738Y-80829816D01*
X110250478Y-80925789D01*
X110261984Y-80929815D01*
X110420745Y-80985368D01*
X110420750Y-80985369D01*
X110599996Y-81005565D01*
X110600000Y-81005565D01*
X110600004Y-81005565D01*
X110779249Y-80985369D01*
X110779252Y-80985368D01*
X110779255Y-80985368D01*
X110949522Y-80925789D01*
X111102262Y-80829816D01*
X111102267Y-80829810D01*
X111105097Y-80827555D01*
X111107275Y-80826665D01*
X111108158Y-80826111D01*
X111108255Y-80826265D01*
X111169783Y-80801145D01*
X111182412Y-80800500D01*
X112817588Y-80800500D01*
X112884627Y-80820185D01*
X112894903Y-80827555D01*
X112897736Y-80829814D01*
X112897738Y-80829816D01*
X113050478Y-80925789D01*
X113061984Y-80929815D01*
X113220745Y-80985368D01*
X113220750Y-80985369D01*
X113399996Y-81005565D01*
X113400000Y-81005565D01*
X113400004Y-81005565D01*
X113579249Y-80985369D01*
X113579252Y-80985368D01*
X113579255Y-80985368D01*
X113749522Y-80925789D01*
X113902262Y-80829816D01*
X114029816Y-80702262D01*
X114125789Y-80549522D01*
X114185368Y-80379255D01*
X114185369Y-80379249D01*
X114205565Y-80200003D01*
X114205565Y-80199996D01*
X114185369Y-80020750D01*
X114185368Y-80020745D01*
X114125789Y-79850478D01*
X114090864Y-79794896D01*
X114029815Y-79697737D01*
X113902262Y-79570184D01*
X113749521Y-79474210D01*
X113706626Y-79459201D01*
X113649850Y-79418479D01*
X113624102Y-79353527D01*
X113637558Y-79284965D01*
X113652415Y-79264692D01*
X113651875Y-79264288D01*
X113743350Y-79142093D01*
X113743354Y-79142086D01*
X113793596Y-79007379D01*
X113793598Y-79007372D01*
X113799999Y-78947844D01*
X113800000Y-78947827D01*
X113800000Y-77150000D01*
X108800000Y-77150000D01*
X108800000Y-78947844D01*
X101095442Y-78947844D01*
X101096050Y-76694996D01*
X115589435Y-76694996D01*
X115589435Y-76695003D01*
X115609630Y-76874249D01*
X115609631Y-76874254D01*
X115669211Y-77044523D01*
X115735487Y-77150000D01*
X115765184Y-77197262D01*
X115892738Y-77324816D01*
X116045478Y-77420789D01*
X116215745Y-77480368D01*
X116302669Y-77490161D01*
X116367080Y-77517226D01*
X116376465Y-77525700D01*
X118363181Y-79512416D01*
X118396666Y-79573739D01*
X118399500Y-79600097D01*
X118399500Y-79717587D01*
X118379815Y-79784626D01*
X118372450Y-79794896D01*
X118370186Y-79797734D01*
X118274211Y-79950476D01*
X118214631Y-80120745D01*
X118214630Y-80120750D01*
X118194435Y-80299996D01*
X118194435Y-80300003D01*
X118214630Y-80479249D01*
X118214631Y-80479254D01*
X118274211Y-80649523D01*
X118369077Y-80800500D01*
X118370184Y-80802262D01*
X118497738Y-80929816D01*
X118650478Y-81025789D01*
X118820745Y-81085368D01*
X118820750Y-81085369D01*
X118999996Y-81105565D01*
X119000000Y-81105565D01*
X119000004Y-81105565D01*
X119179249Y-81085369D01*
X119179252Y-81085368D01*
X119179255Y-81085368D01*
X119349522Y-81025789D01*
X119502262Y-80929816D01*
X119629816Y-80802262D01*
X119725789Y-80649522D01*
X119785368Y-80479255D01*
X119785369Y-80479249D01*
X119805565Y-80300003D01*
X119805565Y-80299996D01*
X119785369Y-80120750D01*
X119785368Y-80120745D01*
X119725788Y-79950476D01*
X119662955Y-79850478D01*
X119629816Y-79797738D01*
X119629814Y-79797736D01*
X119629813Y-79797734D01*
X119627550Y-79794896D01*
X119626659Y-79792715D01*
X119626111Y-79791842D01*
X119626264Y-79791745D01*
X119601144Y-79730209D01*
X119600500Y-79717587D01*
X119600500Y-79220945D01*
X119600500Y-79220943D01*
X119559577Y-79068216D01*
X119490071Y-78947827D01*
X119480524Y-78931290D01*
X119480521Y-78931286D01*
X119480520Y-78931284D01*
X119368716Y-78819480D01*
X119368715Y-78819479D01*
X119364385Y-78815149D01*
X119364374Y-78815139D01*
X117225700Y-76676465D01*
X117192215Y-76615142D01*
X117190163Y-76602686D01*
X117180368Y-76515745D01*
X117120789Y-76345478D01*
X117024816Y-76192738D01*
X116897262Y-76065184D01*
X116744523Y-75969211D01*
X116574254Y-75909631D01*
X116574249Y-75909630D01*
X116395004Y-75889435D01*
X116394996Y-75889435D01*
X116215750Y-75909630D01*
X116215745Y-75909631D01*
X116045476Y-75969211D01*
X115892737Y-76065184D01*
X115765184Y-76192737D01*
X115669211Y-76345476D01*
X115609631Y-76515745D01*
X115609630Y-76515750D01*
X115589435Y-76694996D01*
X101096050Y-76694996D01*
X101098557Y-67399996D01*
X103394435Y-67399996D01*
X103394435Y-67400003D01*
X103414630Y-67579249D01*
X103414631Y-67579254D01*
X103474211Y-67749523D01*
X103570185Y-67902263D01*
X103572445Y-67905097D01*
X103573334Y-67907275D01*
X103573889Y-67908158D01*
X103573734Y-67908255D01*
X103598855Y-67969783D01*
X103599500Y-67982412D01*
X103599500Y-73713330D01*
X103599499Y-73713348D01*
X103599499Y-73879054D01*
X103599498Y-73879054D01*
X103599499Y-73879057D01*
X103640423Y-74031785D01*
X103667716Y-74079057D01*
X103679809Y-74100003D01*
X103719479Y-74168714D01*
X103719481Y-74168717D01*
X103838349Y-74287585D01*
X103838355Y-74287590D01*
X105115139Y-75564374D01*
X105115149Y-75564385D01*
X105119479Y-75568715D01*
X105119480Y-75568716D01*
X105231284Y-75680520D01*
X105318095Y-75730639D01*
X105318097Y-75730641D01*
X105356151Y-75752611D01*
X105368215Y-75759577D01*
X105520943Y-75800501D01*
X105520946Y-75800501D01*
X105686653Y-75800501D01*
X105686669Y-75800500D01*
X107317588Y-75800500D01*
X107384627Y-75820185D01*
X107394903Y-75827555D01*
X107397736Y-75829814D01*
X107397738Y-75829816D01*
X107550478Y-75925789D01*
X107674571Y-75969211D01*
X107720745Y-75985368D01*
X107720750Y-75985369D01*
X107899996Y-76005565D01*
X107900000Y-76005565D01*
X107900004Y-76005565D01*
X108079249Y-75985369D01*
X108079252Y-75985368D01*
X108079255Y-75985368D01*
X108249522Y-75925789D01*
X108402262Y-75829816D01*
X108529816Y-75702262D01*
X108571006Y-75636707D01*
X108623341Y-75590417D01*
X108692394Y-75579769D01*
X108756243Y-75608144D01*
X108794615Y-75666533D01*
X108800000Y-75702680D01*
X108800000Y-76650000D01*
X111050000Y-76650000D01*
X111550000Y-76650000D01*
X113800000Y-76650000D01*
X113800000Y-74852172D01*
X113799999Y-74852155D01*
X113793598Y-74792627D01*
X113793596Y-74792620D01*
X113743354Y-74657913D01*
X113743350Y-74657906D01*
X113657190Y-74542812D01*
X113657187Y-74542809D01*
X113542093Y-74456649D01*
X113542086Y-74456645D01*
X113407379Y-74406403D01*
X113407372Y-74406401D01*
X113347844Y-74400000D01*
X111550000Y-74400000D01*
X111550000Y-76650000D01*
X111050000Y-76650000D01*
X111050000Y-74400000D01*
X110648596Y-74400000D01*
X110581557Y-74380315D01*
X110535802Y-74327511D01*
X110525858Y-74258353D01*
X110554883Y-74194797D01*
X110560915Y-74188319D01*
X111454799Y-73294435D01*
X113518535Y-71230698D01*
X113579856Y-71197215D01*
X113592311Y-71195163D01*
X113679255Y-71185368D01*
X113849522Y-71125789D01*
X114002262Y-71029816D01*
X114002267Y-71029810D01*
X114005097Y-71027555D01*
X114007275Y-71026665D01*
X114008158Y-71026111D01*
X114008255Y-71026265D01*
X114069783Y-71001145D01*
X114082412Y-71000500D01*
X116817588Y-71000500D01*
X116884627Y-71020185D01*
X116894903Y-71027555D01*
X116897736Y-71029814D01*
X116897738Y-71029816D01*
X117050478Y-71125789D01*
X117220742Y-71185367D01*
X117220745Y-71185368D01*
X117220750Y-71185369D01*
X117399996Y-71205565D01*
X117400000Y-71205565D01*
X117400004Y-71205565D01*
X117579249Y-71185369D01*
X117579252Y-71185368D01*
X117579255Y-71185368D01*
X117749522Y-71125789D01*
X117902262Y-71029816D01*
X118029816Y-70902262D01*
X118125789Y-70749522D01*
X118185368Y-70579255D01*
X118205565Y-70400000D01*
X118202419Y-70372082D01*
X118185369Y-70220750D01*
X118185368Y-70220745D01*
X118125788Y-70050476D01*
X118029815Y-69897737D01*
X117902262Y-69770184D01*
X117749523Y-69674211D01*
X117579254Y-69614631D01*
X117579249Y-69614630D01*
X117400004Y-69594435D01*
X117399996Y-69594435D01*
X117220750Y-69614630D01*
X117220745Y-69614631D01*
X117050476Y-69674211D01*
X116897736Y-69770185D01*
X116894903Y-69772445D01*
X116892724Y-69773334D01*
X116891842Y-69773889D01*
X116891744Y-69773734D01*
X116830217Y-69798855D01*
X116817588Y-69799500D01*
X114082412Y-69799500D01*
X114015373Y-69779815D01*
X114005097Y-69772445D01*
X114002263Y-69770185D01*
X114002262Y-69770184D01*
X113945496Y-69734515D01*
X113849523Y-69674211D01*
X113679254Y-69614631D01*
X113679249Y-69614630D01*
X113500004Y-69594435D01*
X113499996Y-69594435D01*
X113320750Y-69614630D01*
X113320745Y-69614631D01*
X113150476Y-69674211D01*
X112997737Y-69770184D01*
X112870184Y-69897737D01*
X112774210Y-70050478D01*
X112714630Y-70220750D01*
X112704837Y-70307668D01*
X112677770Y-70372082D01*
X112669298Y-70381465D01*
X109687584Y-73363181D01*
X109626261Y-73396666D01*
X109599903Y-73399500D01*
X106925494Y-73399500D01*
X106859523Y-73380494D01*
X106849525Y-73374212D01*
X106679254Y-73314631D01*
X106679249Y-73314630D01*
X106500004Y-73294435D01*
X106499996Y-73294435D01*
X106320750Y-73314630D01*
X106320745Y-73314631D01*
X106150476Y-73374211D01*
X105997737Y-73470184D01*
X105870184Y-73597737D01*
X105774211Y-73750476D01*
X105714631Y-73920745D01*
X105714630Y-73920750D01*
X105694435Y-74099996D01*
X105694435Y-74100003D01*
X105698591Y-74136891D01*
X105686536Y-74205713D01*
X105639187Y-74257092D01*
X105571577Y-74274716D01*
X105505171Y-74252989D01*
X105487690Y-74238455D01*
X104836819Y-73587584D01*
X104803334Y-73526261D01*
X104800500Y-73499903D01*
X104800500Y-67982412D01*
X104820185Y-67915373D01*
X104827555Y-67905097D01*
X104829810Y-67902267D01*
X104829816Y-67902262D01*
X104925789Y-67749522D01*
X104985368Y-67579255D01*
X105005565Y-67400000D01*
X104985368Y-67220745D01*
X104925789Y-67050478D01*
X104829816Y-66897738D01*
X104702262Y-66770184D01*
X104549523Y-66674211D01*
X104379254Y-66614631D01*
X104379249Y-66614630D01*
X104200004Y-66594435D01*
X104199996Y-66594435D01*
X104020750Y-66614630D01*
X104020745Y-66614631D01*
X103850476Y-66674211D01*
X103697737Y-66770184D01*
X103570184Y-66897737D01*
X103474211Y-67050476D01*
X103414631Y-67220745D01*
X103414630Y-67220750D01*
X103394435Y-67399996D01*
X101098557Y-67399996D01*
X101100330Y-60827335D01*
X101120033Y-60760302D01*
X101172849Y-60714562D01*
X101224897Y-60703371D01*
X108592274Y-60737166D01*
G37*
%TD.AperFunction*%
%TA.AperFunction,Conductor*%
G36*
X108231547Y-88419401D02*
G01*
X108282450Y-88467261D01*
X108299500Y-88530012D01*
X108299500Y-92397870D01*
X108299501Y-92397881D01*
X108304176Y-92441373D01*
X108291768Y-92510132D01*
X108244156Y-92561268D01*
X108176456Y-92578545D01*
X108148793Y-92574399D01*
X108130000Y-92569363D01*
X108130000Y-93466988D01*
X108072993Y-93434075D01*
X107945826Y-93400000D01*
X107814174Y-93400000D01*
X107687007Y-93434075D01*
X107630000Y-93466988D01*
X107630000Y-92569364D01*
X107629999Y-92569364D01*
X107416513Y-92626567D01*
X107416507Y-92626570D01*
X107202422Y-92726399D01*
X107202420Y-92726400D01*
X107008926Y-92861886D01*
X106886865Y-92983947D01*
X106825542Y-93017431D01*
X106755850Y-93012447D01*
X106699917Y-92970575D01*
X106683002Y-92939598D01*
X106633797Y-92807671D01*
X106633793Y-92807664D01*
X106547547Y-92692455D01*
X106547544Y-92692452D01*
X106432335Y-92606206D01*
X106432328Y-92606202D01*
X106297482Y-92555908D01*
X106297483Y-92555908D01*
X106237883Y-92549501D01*
X106237881Y-92549500D01*
X106237873Y-92549500D01*
X106237865Y-92549500D01*
X106064500Y-92549500D01*
X105997461Y-92529815D01*
X105951706Y-92477011D01*
X105940500Y-92425500D01*
X105940500Y-90360097D01*
X105960185Y-90293058D01*
X105976819Y-90272416D01*
X106757594Y-89491641D01*
X107618536Y-88630698D01*
X107679857Y-88597215D01*
X107692310Y-88595163D01*
X107779255Y-88585368D01*
X107949522Y-88525789D01*
X108102262Y-88429816D01*
X108102262Y-88429815D01*
X108108158Y-88426111D01*
X108109602Y-88428409D01*
X108162849Y-88406659D01*
X108231547Y-88419401D01*
G37*
%TD.AperFunction*%
%TD*%
M02*
