%TF.GenerationSoftware,KiCad,Pcbnew,8.0.6*%
%TF.CreationDate,2024-11-07T13:30:53-03:00*%
%TF.ProjectId,dice-keychain,64696365-2d6b-4657-9963-6861696e2e6b,rev?*%
%TF.SameCoordinates,Original*%
%TF.FileFunction,Soldermask,Top*%
%TF.FilePolarity,Negative*%
%FSLAX46Y46*%
G04 Gerber Fmt 4.6, Leading zero omitted, Abs format (unit mm)*
G04 Created by KiCad (PCBNEW 8.0.6) date 2024-11-07 13:30:53*
%MOMM*%
%LPD*%
G01*
G04 APERTURE LIST*
G04 Aperture macros list*
%AMRoundRect*
0 Rectangle with rounded corners*
0 $1 Rounding radius*
0 $2 $3 $4 $5 $6 $7 $8 $9 X,Y pos of 4 corners*
0 Add a 4 corners polygon primitive as box body*
4,1,4,$2,$3,$4,$5,$6,$7,$8,$9,$2,$3,0*
0 Add four circle primitives for the rounded corners*
1,1,$1+$1,$2,$3*
1,1,$1+$1,$4,$5*
1,1,$1+$1,$6,$7*
1,1,$1+$1,$8,$9*
0 Add four rect primitives between the rounded corners*
20,1,$1+$1,$2,$3,$4,$5,0*
20,1,$1+$1,$4,$5,$6,$7,0*
20,1,$1+$1,$6,$7,$8,$9,0*
20,1,$1+$1,$8,$9,$2,$3,0*%
G04 Aperture macros list end*
%ADD10RoundRect,0.243750X-0.243750X-0.456250X0.243750X-0.456250X0.243750X0.456250X-0.243750X0.456250X0*%
%ADD11RoundRect,0.243750X0.243750X0.456250X-0.243750X0.456250X-0.243750X-0.456250X0.243750X-0.456250X0*%
%ADD12R,1.550000X1.300000*%
%ADD13R,1.700000X1.700000*%
%ADD14O,1.700000X1.700000*%
%ADD15R,1.700000X0.650000*%
%ADD16RoundRect,0.250000X0.262500X0.450000X-0.262500X0.450000X-0.262500X-0.450000X0.262500X-0.450000X0*%
%ADD17RoundRect,0.250000X-0.262500X-0.450000X0.262500X-0.450000X0.262500X0.450000X-0.262500X0.450000X0*%
%ADD18RoundRect,0.250000X0.250000X0.475000X-0.250000X0.475000X-0.250000X-0.475000X0.250000X-0.475000X0*%
G04 APERTURE END LIST*
D10*
%TO.C,D5*%
X118462500Y-78400000D03*
X120337500Y-78400000D03*
%TD*%
D11*
%TO.C,D7*%
X120337500Y-62400000D03*
X118462500Y-62400000D03*
%TD*%
D12*
%TO.C,SW1*%
X107625000Y-84550000D03*
X115575000Y-84550000D03*
X107625000Y-89050000D03*
X115575000Y-89050000D03*
%TD*%
D13*
%TO.C,J1*%
X105340000Y-93900000D03*
D14*
X107880000Y-93900000D03*
X110420000Y-93900000D03*
X112960000Y-93900000D03*
X115500000Y-93900000D03*
X118040000Y-93900000D03*
%TD*%
D15*
%TO.C,U1*%
X107600000Y-76395000D03*
X107600000Y-77665000D03*
X107600000Y-78935000D03*
X107600000Y-80205000D03*
X114900000Y-80205000D03*
X114900000Y-78935000D03*
X114900000Y-77665000D03*
X114900000Y-76395000D03*
%TD*%
D10*
%TO.C,D4*%
X110462500Y-70400000D03*
X112337500Y-70400000D03*
%TD*%
D11*
%TO.C,D6*%
X120337500Y-70400000D03*
X118462500Y-70400000D03*
%TD*%
%TO.C,D1*%
X104337500Y-62400000D03*
X102462500Y-62400000D03*
%TD*%
D16*
%TO.C,R2*%
X104512500Y-74500000D03*
X102687500Y-74500000D03*
%TD*%
D17*
%TO.C,R4*%
X118487500Y-66400000D03*
X120312500Y-66400000D03*
%TD*%
D18*
%TO.C,C1*%
X112300000Y-73800000D03*
X110400000Y-73800000D03*
%TD*%
D11*
%TO.C,D3*%
X104337500Y-78400000D03*
X102462500Y-78400000D03*
%TD*%
D10*
%TO.C,D2*%
X102462500Y-70400000D03*
X104337500Y-70400000D03*
%TD*%
D16*
%TO.C,R1*%
X104200000Y-66200000D03*
X102375000Y-66200000D03*
%TD*%
%TO.C,R3*%
X120312500Y-74500000D03*
X118487500Y-74500000D03*
%TD*%
M02*
