%TF.GenerationSoftware,KiCad,Pcbnew,8.0.6*%
%TF.CreationDate,2024-11-07T13:30:53-03:00*%
%TF.ProjectId,dice-keychain,64696365-2d6b-4657-9963-6861696e2e6b,rev?*%
%TF.SameCoordinates,Original*%
%TF.FileFunction,Legend,Bot*%
%TF.FilePolarity,Positive*%
%FSLAX46Y46*%
G04 Gerber Fmt 4.6, Leading zero omitted, Abs format (unit mm)*
G04 Created by KiCad (PCBNEW 8.0.6) date 2024-11-07 13:30:53*
%MOMM*%
%LPD*%
G01*
G04 APERTURE LIST*
%ADD10C,0.150000*%
%ADD11C,0.120000*%
G04 APERTURE END LIST*
D10*
X120685714Y-85831009D02*
X120542857Y-85878628D01*
X120542857Y-85878628D02*
X120495238Y-85926247D01*
X120495238Y-85926247D02*
X120447619Y-86021485D01*
X120447619Y-86021485D02*
X120447619Y-86164342D01*
X120447619Y-86164342D02*
X120495238Y-86259580D01*
X120495238Y-86259580D02*
X120542857Y-86307200D01*
X120542857Y-86307200D02*
X120638095Y-86354819D01*
X120638095Y-86354819D02*
X121019047Y-86354819D01*
X121019047Y-86354819D02*
X121019047Y-85354819D01*
X121019047Y-85354819D02*
X120685714Y-85354819D01*
X120685714Y-85354819D02*
X120590476Y-85402438D01*
X120590476Y-85402438D02*
X120542857Y-85450057D01*
X120542857Y-85450057D02*
X120495238Y-85545295D01*
X120495238Y-85545295D02*
X120495238Y-85640533D01*
X120495238Y-85640533D02*
X120542857Y-85735771D01*
X120542857Y-85735771D02*
X120590476Y-85783390D01*
X120590476Y-85783390D02*
X120685714Y-85831009D01*
X120685714Y-85831009D02*
X121019047Y-85831009D01*
X120161904Y-85354819D02*
X119590476Y-85354819D01*
X119876190Y-86354819D02*
X119876190Y-85354819D01*
X118733333Y-86354819D02*
X119304761Y-86354819D01*
X119019047Y-86354819D02*
X119019047Y-85354819D01*
X119019047Y-85354819D02*
X119114285Y-85497676D01*
X119114285Y-85497676D02*
X119209523Y-85592914D01*
X119209523Y-85592914D02*
X119304761Y-85640533D01*
D11*
%TO.C,BT1*%
X104950000Y-87580000D02*
X108500000Y-87580000D01*
X105020000Y-66220000D02*
X108500000Y-66220000D01*
X108500000Y-61150000D02*
X114100000Y-61150000D01*
X108500000Y-66220000D02*
X108500000Y-61150000D01*
X108500000Y-87580000D02*
X108500000Y-92650000D01*
X108500000Y-92650000D02*
X114100000Y-92650000D01*
X114100000Y-66220000D02*
X114100000Y-61150000D01*
X114100000Y-92650000D02*
X114100000Y-87580000D01*
X115550000Y-66220000D02*
X114100000Y-66220000D01*
X115550000Y-87580000D02*
X114100000Y-87580000D01*
X121930000Y-73100000D02*
X115550000Y-66220000D01*
X121930000Y-73100000D02*
X121930000Y-80700000D01*
X121930000Y-80700000D02*
X115550000Y-87580000D01*
X102960001Y-71719999D02*
G75*
G02*
X105000000Y-66222941I2040000J2369999D01*
G01*
X102969999Y-71730001D02*
G75*
G02*
X102832608Y-82206422I-5270000J-5169999D01*
G01*
X105000000Y-87580000D02*
G75*
G02*
X102807247Y-82216452I0J3130000D01*
G01*
%TD*%
M02*
