M48
; DRILL file {KiCad 8.0.6} date 2024-11-07T13:30:58-0300
; FORMAT={-:-/ absolute / inch / decimal}
; #@! TF.CreationDate,2024-11-07T13:30:58-03:00
; #@! TF.GenerationSoftware,Kicad,Pcbnew,8.0.6
; #@! TF.FileFunction,Plated,1,2,PTH
FMAT,2
INCH
; #@! TA.AperFunction,Plated,PTH,ViaDrill
T1C0.0118
; #@! TA.AperFunction,Plated,PTH,ComponentDrill
T2C0.0394
%
G90
G05
T1
X4.0827Y-3.6535
X4.1024Y-2.6535
X4.1929Y-2.9173
X4.2047Y-3.6457
X4.2362Y-3.2126
X4.2362Y-3.4567
X4.248Y-2.9606
X4.3268Y-3.4646
X4.3465Y-2.8465
X4.3543Y-3.1575
X4.4528Y-3.4646
X4.4646Y-3.1575
X4.4685Y-2.7717
X4.5825Y-3.0195
X4.622Y-2.7717
X4.685Y-3.1614
T2
X4.1472Y-3.6969
X4.2472Y-3.6969
X4.3472Y-3.6969
X4.4472Y-3.6969
X4.5472Y-3.6969
X4.6472Y-3.6969
M30
